<svg xmlns="http://www.w3.org/2000/svg" version="1.1" xmlns:xlink="http://www.w3.org/1999/xlink" width="512" height="512" x="0" y="0" viewBox="0 0 512 512" style="enable-background:new 0 0 512 512" xml:space="preserve"><g><path fill="#734bbd" d="m451 135-105-30L316 0H106C81.147 0 61 20.147 61 45v422c0 24.853 20.147 45 45 45h300c24.853 0 45-20.147 45-45z" opacity="1" data-original="#734bbd"></path><circle cx="136" cy="256" r="15" fill="#fff5f5" opacity="1" data-original="#fff5f5"></circle><circle cx="136" cy="316" r="15" fill="#fff5f5" opacity="1" data-original="#fff5f5"></circle><circle cx="136" cy="376" r="15" fill="#fff5f5" opacity="1" data-original="#fff5f5"></circle><path fill="#5f45a9" d="M451 135v332c0 24.853-20.147 45-45 45H256V0h60l30 105z" opacity="1" data-original="#5f45a9"></path><path fill="#fff5f5" d="M346 271H196c-8.291 0-15-6.709-15-15s6.709-15 15-15h150c8.291 0 15 6.709 15 15s-6.709 15-15 15zM346 331H196c-8.291 0-15-6.709-15-15s6.709-15 15-15h150c8.291 0 15 6.709 15 15s-6.709 15-15 15zM346 391H196c-8.291 0-15-6.709-15-15s6.709-15 15-15h150c8.291 0 15 6.709 15 15s-6.709 15-15 15z" opacity="1" data-original="#fff5f5"></path><g fill="#e3e7ea"><path d="M256 391h90c8.291 0 15-6.709 15-15s-6.709-15-15-15h-90zM256 331h90c8.291 0 15-6.709 15-15s-6.709-15-15-15h-90zM256 271h90c8.291 0 15-6.709 15-15s-6.709-15-15-15h-90z" fill="#e3e7ea" opacity="1" data-original="#e3e7ea"></path></g><path fill="#9b7ed0" d="M451 135H346c-16.5 0-30-13.5-30-30V0c3.9 0 7.8 1.5 10.499 4.501l120 120C449.5 127.2 451 131.1 451 135z" opacity="1" data-original="#9b7ed0"></path></g></svg>