<?xml version="1.0" ?>
<!-- Uploaded to: SVG Repo, www.svgrepo.com, Generator: SVG Repo Mixer Tools -->
<svg width="800px" height="800px" viewBox="0 0 64 64" version="1.1" xml:space="preserve" xmlns="http://www.w3.org/2000/svg" xmlns:xlink="http://www.w3.org/1999/xlink">
<style type="text/css">
	.st0{fill:none;stroke:#EDEDED;stroke-width:0.25;stroke-miterlimit:10;}
	.st1{fill:none;stroke:#BDBDBD;stroke-width:0.25;stroke-miterlimit:10;}
	.st2{fill:none;stroke:#000000;stroke-width:2;stroke-miterlimit:10;}
	.st3{fill:#35C6F4;}
	.st4{fill:#EA386E;}
	.st5{fill:#7065AD;}
	.st6{fill:#FDBE57;}
	.st7{fill:#7BC89C;}
	.st8{fill:#FDD304;}
	.st9{fill:#27255F;}
	.st10{fill:#00AEEF;}
</style>
<g id="Layer_1"/>
<g id="Layer_2">
<g>
<path d="M49.3,10l1.3-7H13.2l1.3,7H6.6v9.1c0,7.1,5.3,12.9,12.1,13.7c1.2,5.3,5.3,9.3,10.4,10.3l-0.8,12.3h-7.9V61h23v-1v-4.5    h-7.9l-0.8-12.3c5.1-1.1,9.3-5.1,10.4-10.3c6.9-0.8,12.3-6.6,12.3-13.8V10H49.3z M48.4,15.1h4.1v4c0,4-2.7,7.4-6.4,8.5L48.4,15.1z     M17.7,27.5c-3.6-1.1-6.2-4.5-6.2-8.4v-4h4L17.7,27.5z M8.6,19.1V12h6.3l0.2,1.1H9.4v6c0,5.2,3.7,9.6,8.6,10.6l0.2,1.1    C12.8,29.8,8.6,24.9,8.6,19.1z M41.4,57.5V59h-19v-1.5h5.8h7.4H41.4z M32.7,43.5l0.8,12h-3.1l0.8-12h0.8h0H32.7z M31.9,41.5    L31.9,41.5c-5.6,0-10.4-4-11.4-9.5L15.6,5h32.6l-4.9,27C42.3,37.5,37.5,41.5,31.9,41.5z M55.4,19.1c0,5.9-4.3,10.7-9.9,11.7    l0.2-1.1c5-0.9,8.8-5.3,8.8-10.6v-6h-5.8L49,12h6.4V19.1z"/>
<path d="M34.8,17.6l-2.9-8.9l-1,2.9L29,17.6h-9.3l7.5,5.5l-2.9,8.9l7.5-5.5l7.5,5.5l-2.9-8.9l7.5-5.5H34.8z M35.7,26.7L31.9,24    l-3.7,2.7l1.4-4.4l-3.7-2.7h4.6l1.4-4.4l1.4,4.4H38l-3.7,2.7L35.7,26.7z"/>
</g>
</g>
</svg>