<svg xmlns="http://www.w3.org/2000/svg" version="1.1" xmlns:xlink="http://www.w3.org/1999/xlink" width="512" height="512" x="0" y="0" viewBox="0 0 512.003 512.003" style="enable-background:new 0 0 512 512" xml:space="preserve"><g><path d="M89.39 71.696c-1.862 10.447 4.605 21.603.768 31.497-2.536 6.54-8.983 10.735-12.516 16.795-5.491 9.419-3.044 21.195-1.854 32.032.177 1.612.308 3.32-.388 4.785-1.154 2.43-4.081 3.331-6.663 4.086-9.338 2.731-19.54 8.469-20.667 18.133-.559 4.795 1.323 9.534 1.516 14.357.488 12.228-9.775 23.168-8.545 35.343 1.244 12.315 13.806 21.204 15.08 33.516.632 6.106-1.654 12.231-1.05 18.339.615 6.216 4.189 12.296 2.708 18.364-1.741 7.132-9.438 10.733-14.785 15.763-6.672 6.275-10.031 15.892-8.717 24.957.577 3.979 1.899 8.407-.346 11.743-1.179 1.752-3.125 2.794-4.802 4.077-7.157 5.474-9.222 16.57-4.514 24.253 5.772 9.42 18.344 11.696 29.388 11.984a174.234 174.234 0 0 0 29.964-1.805c6.456-.953 13.016-2.27 19.452-1.192 10.361 1.735 19.796 9.558 30.166 7.878 6.813-1.104 12.525-6.217 19.379-7.025 3.544-.418 7.107.357 10.608 1.049 13.395 2.647 27.805 4.032 40.265-1.553 12.46-5.584 21.724-20.289 16.966-33.087-2.904-7.812-10.302-13.58-12.099-21.718-1.579-7.153 1.435-15.191-1.975-21.674-3.911-7.436-14.692-9.544-17.801-17.349-3.229-8.106 3.723-17.776.173-25.747-1.799-4.039-5.977-6.685-7.583-10.804-2.489-6.384 1.993-13.098 4.268-19.561 5.278-14.997-3.282-33.432-18.144-39.079-4.958-1.884-11.006-2.953-13.497-7.635-1.274-2.395-1.276-5.246-1.143-7.956a106.962 106.962 0 0 1 7.5-34.408c3.209-8.027 7.489-16.442 5.58-24.873-1.402-6.193-6.078-11.691-5.633-18.026.235-3.345 1.904-6.427 2.46-9.734 2.003-11.906-10.046-20.959-15.349-31.805-5.62-11.495-14.141-25.427-29.701-20.609-10.917 3.378-26.382 14.976-28.469 26.689zM349.532 132.154c-6.519.41-13.045-.592-19.577-.572-18.592.058-38.271 10.428-43.877 28.155-2.723 8.61-2.232 18.669-8.053 25.572-3.811 4.519-9.62 6.742-14.43 10.179-10.216 7.301-15.62 20.769-13.284 33.107.915 4.836 2.914 9.532 2.801 14.452-.172 7.477-5.097 13.86-8.238 20.647-6.392 13.811-5.191 30.861 3.073 43.639 5.946 9.193 15.377 16.587 17.848 27.253 1.246 5.378.636 11.363 3.559 16.046 2.918 4.674 8.648 6.786 14.105 7.55 5.457.764 11.074.512 16.391 1.956 7.328 1.989 13.387 6.981 19.769 11.094 6.382 4.113 13.989 7.526 21.382 5.794 5.509-1.291 10.1-5.286 15.627-6.497 6.178-1.354 12.481.941 18.682 2.189 12.598 2.535 26.046.621 37.436-5.329 3.829-2 7.508-4.516 10.015-8.033 1.41-1.978 2.431-4.246 4.101-6.01 1.927-2.036 4.549-3.23 7.006-4.579 18.34-10.071 29.45-31.921 26.783-52.673-.538-4.188-1.584-8.356-1.341-12.571.299-5.172 2.509-10.011 4.567-14.766 5.552-12.832 9.868-28.849 1.231-39.844-3.687-4.694-9.368-7.795-12.057-13.123-4.294-8.51.674-18.59.88-28.12.285-13.182-10.109-25.777-23.106-27.999-3.812-.652-7.813-.522-11.395-1.979-10.038-4.082-11.602-17.52-18.238-26.087-4.9-6.326-15.129-11.309-23.294-9.833-4.276.773-7.863 4.198-11.719 6.035-5.206 2.482-10.887 3.985-16.647 4.347z" style="" fill="#7cd15d" data-original="#7cd15d"></path><path d="M105.088 419.227c0-7.626 4.21-28.918-5.962-31.797-6.919-1.958-18.562.456-25.481 1.926-14.145 3.003-16.502 16.36-15.464 29.347-3.792-3.763-12.063-5.644-17.213-4.645-7.166 1.391-8.813 5.08-9.014 11.699-3.796-5.686-9.934-6.649-16.297-7.725-7.827-1.324-11.08 1.937-11.591 10.056-.366 5.818 2.811 18.674 9.564 19.931 3.069.572 8.039-2.21 10.852-2.905 4.687-1.156 9.532-2.268 14.345-2.384 6.921-.167 12.617 2.51 18.812 5.152 11.95 5.097 17.21-1.533 28.299-5.194 2.949-.974 6.261-1.444 9.368-1.28 1.805.095 5.869 1.924 7.506 1.354 7.616-2.656 3.856-20.869 2.276-23.535zM141.654 391.803c.005 10.126.798 20.307 2.185 30.337.599 4.332.047 11.224 1.766 15.288 2.49 5.886 8.198 1.768 13.128 1.406 7.434-.546 14.695 1.642 21.803 3.563 10.8 2.918 21.377 3.18 32.471 2.46 15.25-.99 30.131-.851 45.421-.816 8.462.019 16.882 1.534 25.343 1.989 8.094.436 16.185-1.565 24.291-1.552 11.647.018 23.078 3.291 34.618 3.504 2.285-7.857.873-15.013-.03-22.885-.308-2.683.305-7.358-1.788-9.355-5.244-5.003-9.782 4.867-14.178 6.499-5.518-5.057-2.733-32.811-15.165-17.124-6.178 7.796-7.822 7.611-10.575-1.645-1.388-4.666-1.434-9.783-3.025-14.281-1.07-3.023-3.364-6.154-7.388-4.702-5.043 1.821-5.343 10.445-7.074 14.714-2.822 6.957-4.861 1.483-7.374-2.633-2.031-3.327-4.541-6.452-8.188-8.248-16.102-7.932-10.978 19.476-10.516 27.354-5.158.628-8.756-5.038-14.02-5.119-6.356-.098-8.157 6.62-13.261 8.148-6.474 1.938-2.768-5.823-7.637-8.226-4.663-2.302-9.812 5.741-14.893 4.652-11.59-2.483 5.182-18.841-6.669-23.348-10.308-3.919-20.802 6.936-30.437 2.693-6.798-2.992-18.265-10.866-28.808-2.673zM379.342 407.864c-4.362 7.864-3.465 15.321-3.49 24.961-.008 3.275-.34 6.931 2.12 9.454 6 6.154 22.7 4.012 30.747 4.336 18.606.748 36.76-3.443 55.33-3.445 6.323-.001 16.172 1.866 21.969-1.202 6.918-3.662 11.595-17.729 13.231-24.914 1.773-7.785 6.157-25.67-3.687-29.941-12.384-5.373-20.194 9.293-27.338 16.023-.742-3.527-3.638-20.992-7.706-20.242-8.897 1.64-4.116 22.77-8.15 28.038-5.091-2.228-5.099-7.728-12.1-6.525-7.442 1.28-7.176 9.954-13.048 12.182-3.848-3.413-.916-11.806-7.795-12.247-6.044-.388-10.093 6.637-15.245 8.069.308-7.915 6.005-20.686-5.899-21.044-8.213-.247-11.687 6.63-16.248 12.463a30.807 30.807 0 0 0-2.691 4.034z" style="" fill="#207b5d" data-original="#207b5d"></path><path d="M220.371 187.571c-9.334 6.684-7.547 19.546-7.909 29.153-.301 7.997-5.705 8.859-7.955 15.809-2.209 6.823 2.826 11.819 1.48 17.991-1.325 6.072-8.164 11.171-11.702 16.025-5.025 6.893-8.574 19.732-4.905 28.394 2.436 5.752 9.433 11.037 13.003 16.389 1.9 2.849 3.895 5.595 5.214 8.778 2.265 5.468.485 10.472 1.947 15.831 1.93 7.076 9.043 11.952 11.915 19.283 4.485 11.448 15.125 20.1 26.452 10.902 8.485 4.339 18.134 11.54 28.163 4.593 6.998-4.848 5.88-8.168 2.576-12.96-5.486-7.956-10.789-15.39-13.126-25.327-2.622-11.15-1.267-13.675-10.113-20.563-11.241-8.753-16.9-24.284-13.036-38.217 2.941-10.605 11.253-19.827 6.093-31.482-1.207-2.725-4.156-4.446-5.467-7.076-2.091-4.193-.664-8.506-1.766-12.799-2.044-7.964-7.829-9.524-8.669-18.908-.71-7.929-1.085-13.795-9.317-17.219-.817.013-1.297.481-2.878 1.403zM469.332 256.647c-3.996 11.65-15.066 22.521-12.281 35.829 1.725 8.241 5.264 12.027 4.013 21.041-1.734 12.495-13.632 25.774-23.812 32.802-4.322 2.984-10.13 3.156-14.145 6.117-3.093 2.282-10.83 14.257-8.226 17.934 3.085 4.356 9.22-.297 12.363-.952 6.319-1.316 5.857.156 11.145 2.412 8.779 3.745 16.295-3.185 26.334-.866 7.11 1.643 15.444 4.4 22.253.008 7.773-5.013 5.201-14.995 8.116-22.405 2.296-5.837 3.957-10.004 1.403-15.786-1.728-3.913-4.298-5.463-4.858-9.883-.776-6.131 4.35-14.419.571-20.055-2.763-4.12-10.24-3.645-11.938-9.609-1.721-6.047 3.296-12.49 1.536-19.089-1.479-5.546-5.132-11.284-12.474-17.498z" style="" fill="#3aaa4d" data-original="#3aaa4d"></path><path d="M102.366 392.64c0 9.628-5.805 45.173 6.462 48.766 6.167 1.807 16.915.837 23.038.889 3.417.029 12.489 2.231 15-.158 3.457-3.289-1.531-26.185-2.228-30.383-.418-2.518-2.023-18.255-4.195-19.74-3.234-2.21-13.855 3.31-18.143 2.795-5.25-.629-11.501-6.991-19.934-2.169zM344.132 376.091c0 23.124-1.786 46.429-.611 69.527 3.796.86 8.416-1.12 12.502-1.168 4.257-.049 10.727 2.218 14.746.717 8.512-3.18 5.757-30.984 5.742-40.261-.01-6.413 2.91-28.881-1.801-33.456-5.032-4.888-21.981-.639-30.578 4.641z" style="" fill="#fcbc7e" data-original="#fcbc7e"></path><path d="M218.932 381.847c-2.198 8.266-.348 18.675.111 27.274 7.007-.093 6.21 6.321 6.492 11.362 5.024-5.42 13.298-8.198 20.649-7.809 2.981-14.769-3.757-29.855-1.444-44.389-11.01-.587-19.275.616-25.808 13.562zM428.318 368.895c.035 13.805-2.632 28.764-1.333 42.463 2.672-2.24 7.272-7.933 11.426-7.06 4.837 1.017 5.796 8.134 11.371 8.375 4.023-7.408 4.953-27.636 1.545-35.858-2.457-5.929-1.411-3.577-7.879-4.485-3.802-.533-10.663-4.245-15.13-3.435zM269.3 446.606c-46.937-.184-95.208-7.992-141.788-2.7-18.126 2.059-35.061-2.252-52.918 1.298-14.236 2.831-28.276-.365-42.528-.035-11.132.258-20.833 3.509-22.193 14.869-1.007 8.41-1.505 29.208 8.096 32.632 5.134 1.831 13.744-.109 19.169.146 9.619.452 19.412.257 29.081.72 19.054.913 38.165.998 57.234 1.838 20.916.922 41.884 2.295 62.781 3.935 8.676.681 17.467 1.753 26.218 1.3 10.483-.543 20.526-3.959 31.057-4.389 36.585-1.495 73.888-3.841 110.576-2.161 16.336.748 31.102.279 47.244 2.716 17.736 2.677 34.249-1.451 51.779-.547 14.117.728 48.974 9.163 51.495-11.836 1.282-10.677 4.179-32.59-7.341-37.604-9.233-4.019-22.393-2.397-32.147-2.337-16.115.1-32.247 2.173-48.35 2.915-24.533 1.131-48.634 1.381-73.151 1.399-22.461.016-48.236-9.848-74.314-2.159z" style="" fill="#ec9b5e" data-original="#ec9b5e"></path><path d="M329.741 17.759c-35.801 25.259-17.613 89.387 28.008 85.846 22.189-1.722 38.279-16.677 39.327-39.239.722-15.554-4.53-33.453-17.931-42.528-7.223-4.891-15.924-8.307-24.683-8.816-9.472-.549-14.785 3.049-24.721 4.737z" style="" fill="#ffc655" data-original="#ffc655"></path><path d="M242.367 60.619c-7.441 2.139-16.752 7.559-19.012 15.306-1.996 6.843-1.634 13.499-.859 20.439-3.732-3.751-9.421-3.863-14.155-1.555-2.987 1.457-5.077 3.882-6.141 7.024-.351 1.038-.333 6.074-1.202 6.75-.922.717-2.924-.174-3.994-.196-3.501-.071-7.592.652-10.322 2.949-2.258 1.899-3.748 4.463-2.738 7.433 1.054 3.099 3.785 3.326 6.942 3.683 6.012.68 12.196-.157 18.232-.126 7.265.037 14.531-.275 21.803-.276 14.173-.001 28.389-.313 42.552.148 4.988.162 9.921-.223 14.919.094 2.804.177 5.698.557 8.508.261 5.507-.58 5.109-5.508 5.251-10.131.188-6.132-1.132-13.147-6.477-16.739-5.697-3.829-10.712-2.019-16.937-1.77-1.583-17.844-12.388-36.766-36.37-33.294zM453.932 68.883c-12.593-.412-17.517 9.92-18.738 20.955-.192 1.733.09 3.824-1.092 5.232-2.948-2.699-11.112-2.194-14.482-.338-3.859 2.126-2.389 4.74-4.331 7.832-1.096 1.746-.863 1.355-2.979 1.317-3.016-.054-7.236-1.747-9.374 1.766-1.459 2.398-.219 5.428 2.085 6.661 4.449 2.381 12.724 1.338 17.52 1.133 6.734-.288 13.491-.024 20.239-.184 11.267-.266 22.496-.445 33.758-.305 3.419.043 10.792 2.202 11.805-1.881 1.016-4.095-3.859-10.219-6.592-12.734-2.326-2.14-4.722-2.994-7.851-3.227-2.24-.167-5.186.853-7.087.247 2.957-4.59 2.58-11.07.283-15.882-1.98-4.151-7.414-10.404-13.164-10.592z" style="" fill="#ffffff" data-original="#ffffff"></path><path d="M511.482 464.158c-1.153-8.57-3.6-16.52-11.044-21.649-2.072-1.428-4.359-2.375-6.758-2.989 1.411-2.912 2.836-5.817 3.881-8.971 1.76-5.308 3.893-10.386 5.894-15.599 3.184-8.298 4.552-20.16-1.601-27.627-4.698-5.7-12.376-4.636-18.363-1.765-4.022 1.929-7.401 4.812-10.173 8.286-.798 1-1.557 2.03-2.291 3.079-1.147-10.301-3.652-22.637-13.089-18.24-.823.384-1.571.916-2.263 1.541-.023-2.043-.167-4.158-.65-6.061 7.742-1.677 15.754 1.948 23.578 2.459 6.047.395 14.293-1.886 17.904-7.182 1.775-2.604 2.279-5.686 1.197-8.656-.424-1.165-1.477-2.158-1.851-3.265-.039-.115-.737-.896-.735-.882-.047-.458 1.418-1.999 1.915-2.669 4.982-6.719 8.103-13.287 3.625-21.149-.901-1.583-1.961-3.145-3.03-4.615-.827-1.138-2.731-2.471-3.193-3.657-1.023-2.63 2.579-7.79 3.345-10.677 2.051-7.73-3.992-14.522-9.923-18.411-1.996-1.309-3.263-1.697-2.971-4.246.26-2.274 1.286-4.55 1.714-6.819.841-4.457.698-8.499-1.098-12.701-2.086-4.88-5.468-9.197-10.064-11.186a78.066 78.066 0 0 0 1.404-6.14c2.851-15.292.453-29.033-13.681-37.379-1.107-.654-2.969-1.266-3.925-2.188.428.31-.163-1.331-.093-2.23.313-4.018 2.043-8.155 2.796-12.129 1.517-8.002 1.935-16.219-1.031-23.954-2.41-6.285-5.928-13.138-11.461-17.2-5.746-4.218-12.948-5.42-19.909-5.856-.618-.039-5.188-.412-8.012-.34-.129-.62-.398-1.367-.462-1.702-.448-2.361-.79-4.744-1.476-7.053-1.967-6.622-5.686-13.069-10.742-17.811-10.556-9.901-26.954-12.007-40.19-6.894-2.94 1.136-5.724 2.482-8.26 4.362-1.177.872-2.271 1.785-3.252 2.871l-.088.095c-1.198-.613-2.472-1.113-4.08-1.388-5.261-.9-10.436-.893-15.717-.186-5.39.722-10.648 2.061-15.919 3.369-4.539 1.126-9.172 1.915-13.456 3.843-8.449 3.801-14.547 10.456-19.792 17.894-2.808 3.982-5.56 7.754-7.202 12.396-1.631 4.612-2.2 9.511-2.94 14.321-.013.086-.005.164-.014.248-.265.8-.618 1.498-1.121 2.004-1.674 1.685-5.074 2.312-7.168 3.378-2.808 1.429-5.428 3.296-7.876 5.273-8.979 7.253-15.222 18.757-17.224 30.454-.551-1.481-1.344-2.857-2.505-4.006-.832-.823-1.771-1.329-2.752-1.926-.088-.053-.285-.122-.5-.199.303-.454.426-1.639.459-2.013.309-3.523-1.553-6.996-2.534-10.257-1.059-3.52-1.37-7.339-3.268-10.563-2.796-4.752-9.385-7.601-14.808-6.618-3.21.582-4.323 2.247-5.843 4.769-1.815 3.012-4.131 5.079-4.981 8.655-1.852 7.786 1.591 16.795-2.353 23.944-3.705 6.717-6.638 12.21-5.664 20.127.231 1.881.548 3.764 1.097 5.58.298.987 1.89 3.457 1.793 4.221-.149 1.178-2.512 3.263-3.22 4.251a41.995 41.995 0 0 0-3.229 5.265 72.79 72.79 0 0 0-1.23 2.496c-1.389-1.945-3.16-3.899-3.94-6.009-.833-2.256.127-3.979.898-6.622 1.974-6.774 3.92-13.697 3.808-20.823-.22-14.041-9.435-26.842-20.927-34.389-4.482-2.943-9.631-4.108-14.9-4.456.063-.61.117-1.124.165-1.348.876-4.144 1.873-8.254 2.366-12.468.364-3.111.147-6.067.092-9.192-.063-3.55.709-5.12 2.567-7.973 3.94-6.05 5.905-12.942 7.173-19.992 1.093-6.078.994-11.807-1.012-17.716-1.181-3.481-3.364-6.518-4.647-9.863a75.799 75.799 0 0 0-1.039-2.6c.131-2.116 1.485-5.071 1.85-6.91 2.611-13.17-.324-26.266-11.156-34.887-5.244-4.174-4.262-5.842-6.398-12.223-1.425-4.257-4.267-10.212-8.124-12.723-3.667-2.387-8.349-2.34-12.722-2.211-15.535.458-25.469 9.205-35.44 19.669a36.495 36.495 0 0 0-5.722 7.946c-3.339 6.228-5.181 12.622-5.822 19.669-.38 4.172-.155 8.315-.127 12.493.014 2.036-.045 4.203.11 6.328-2.978 1.944-5.796 3.813-8.217 6.955-3.368 4.372-5.211 9.283-6.238 14.684-1.093 5.745-.858 11.203 1.067 16.754.968 2.791 2.021 5.539 2.948 8.347.148.449.461 1.097.829 1.828-2.323.337-4.538.972-6.753 1.807-4.296 1.62-8.302 3.686-11.917 6.535-7.152 5.637-12.008 14.191-10.977 23.495.563 5.085 3.618 10.238 3.735 15.246.079 3.364-5.114 7.622-6.862 10.64-5.802 10.009-4.298 20.134.509 30.219 2.122 4.452 4.785 8.511 7.909 12.321.615.75 1.822 2.746 2.792 3.449-1.29 2.087-2.028 5.579-2.407 7.52-1.055 5.394-.363 10.712.952 16.006.615 2.477 1.341 4.944 2.107 7.378.576 1.829 2.768 5.538 2.365 7.412-.311 1.444-8.922 5.863-10.989 7.42-4.176 3.147-7.938 6.63-11.114 10.794-5.498 7.207-8.122 15.96-7.155 25.015.27 2.533.706 5.078 1.527 7.494.275.811.345 1.351.394 1.637-.371.255-.747.493-1.015.701-3.9 3.021-6.661 6.773-8.526 11.347-3.719 9.121-2.571 19.248 4.58 26.421 9.903 9.933 23.631 11.49 37.391 10.479-1.596 3.758-2.614 7.723-3.582 11.681a21.602 21.602 0 0 0-.586 4.239 31.223 31.223 0 0 0-3.575-1.661c-4.058-1.582-9.466-2.257-13.78-1.535-4.433.742-6.984 3.824-8.171 7.604a13.663 13.663 0 0 0-1.309-1.092c-2.618-1.895-6.008-3.487-9.202-4.074-5.393-.991-11.755.953-15.479 5.039-4.54 4.983-3.664 12.504-1.79 18.442.944 2.989 2.691 6.501 4.949 9.555-.111.144-.223.283-.331.44-2.246 3.297-1.41 7.484-1.314 11.214.13 5.065.524 9.987.97 15.029.557 6.307-.332 14.584 2.625 20.36 3.883 7.586 12.63 5.976 19.786 6.022 10.499.068 20.974-.378 31.469-.438 10.886-.062 21.702 1.237 32.585 1.425 10.572.182 21.035.097 31.587.833 9.908.692 19.516 3.002 29.376 3.948 10.429 1.001 20.791-.546 31.147-1.59 10.398-1.048 20.632.41 31.003 1.038 10.365.627 19.862-1.398 30.07-2.462 10.38-1.082 20.438.554 30.75 1.272 10.41.724 20.474-.838 30.732-2.372 10.597-1.585 20.197-.066 30.703 1.331 10.066 1.339 19.604.218 29.639-.786 5.316-.532 10.698-.951 16.04-.556 5.414.4 10.635 2.06 15.979 2.944 9.78 1.617 18.932.685 28.64-.936 5.065-.846 10.119-1.727 15.277-1.383 5.195.346 10.325 1.628 15.501 2.211 4.665.526 9.093.312 13.71-.486 4.77-.824 9.529-2.429 14.422-2.222 4.039.171 7.655 1.401 11.589-.203 4.081-1.664 6.38-5.466 8.531-9.099 4.923-8.323 5.791-18.043 4.524-27.469zm-56.195-46.111c.937-4.742.126-9.683.42-14.489.295-4.824 1.249-9.902 3.204-14.348.941-2.141 2.088-5.172 3.426-1.508.698 1.913.622 4.263.796 6.281.478 5.544.133 11.08 1.207 16.563.618 3.152 4.867 3.915 6.961 1.838 2.378-2.359 3.439-5.852 5.176-8.679 1.834-2.986 3.868-5.982 6.575-8.249 2.34-1.959 5.685-3.918 8.819-4.21 3.754-.349 4.499 2.419 5.15 5.686 1.734 8.687-2.464 15.428-5.786 23.136-1.747 4.055-3.033 8.299-4.82 12.334-.945 2.135-2.103 4.14-3.207 6.177-2.362.075-4.704.281-6.946.518-3.974.421-7.726-.917-11.706-.995-2.44-.048-4.727.758-7.136.848-2.073.077-4.091-.595-6.166-.527-4.115.135-7.802 2.079-11.854 2.483-.61.036-1.22.068-1.829.102-5.329.108-10.546-.208-15.894.281a476.87 476.87 0 0 0-22.487 2.57c-.178-.015-.355-.019-.534-.038-5.156-.548-10.362-1.143-15.494-1.87-.898-.127-1.784-.244-2.672-.362-.087-2.515-.23-5.032-.145-7.547.095-2.816.882-5.59.836-8.406-.066-4.038-.686-8.022-1.198-12.018a107.531 107.531 0 0 1 7.279-10.121c2.451-3.022 7.475-9.811 11.889-9.61 1.819.083 1.114.065 1.346 1.787.197 1.456-.179 3.389-.399 4.847-.437 2.9-1.188 5.777-1.984 8.599-1.094 3.879-4.549 8.344-3.324 12.45.771 2.586 3.759 3.864 6.134 2.496 4.17-2.403 6.585-7.326 10.082-10.616 1.945-1.83 4.182-4.351 6.905-4.821.219-.038.366-.084.47-.133.337.516.252 1.467.307 2.038.479 4.952-2.902 14.481 2.757 17.634 6.911 3.851 10.136-8.11 12.128-12.161.891-1.812 2.884-6.18 5.294-6.273 1.774-.068 2.743 1.659 3.678 2.969 2.063 2.893 3.749 5.684 6.658 7.816 2.079 1.525 5.6-.022 6.084-2.472zm-75.4-35.099c-.092-1.01-.165-2.052-.255-3.098.105.023.208.054.314.077 7.167 1.512 14.606 1.665 21.716-.243a47.834 47.834 0 0 0 7.708-2.803c5.291.759 10.46.406 15.926-.923-.482 2.209-1.063 4.388-1.297 6.677-.446 4.344-1.038 8.436-1.086 12.84-.017 1.574-.27 3.472-.502 5.471-3.87-2.046-8.724-.234-12.102 2.109-.94.652-1.841 1.379-2.723 2.132.528-2.537.923-5.098 1.047-7.699.286-6.025-1.134-11.791-8.331-11.622-7.132.168-12.648 5.608-16.724 10.887-1.416 1.833-2.896 3.76-4.236 5.779.209-6.537 1.145-13.037.545-19.584zm52.523-3.573c.036-1.495.094-2.877-.038-4.178.602.167 1.248.404 2 .727 1.848.793 3.679 1.562 5.672 1.919 2.766.495 5.084.082 7.391-.754-.117 1.583-.114 3.174-.161 4.607-.087 2.652-.233 5.303.057 7.944.059.539.25 1.265.47 2.051-.314 1.707-.542 3.413-.769 5.006-.369 2.597-.924 5.584-1.13 8.513-2.238-2.381-4.88-3.997-9.101-2.975-1.996.483-3.737 1.533-5.26 2.867-.005-.288-.006-.574.004-.856.137-4.2.668-8.193.582-12.425-.085-4.098.183-8.337.283-12.446zm40.92-112.258c2.94 3.671 4.782 8.524 4.398 12.769-.575 6.349-5.769 12.823-1.576 18.852 3.595 5.169 13.413 6.497 11.161 14.348-1.635 5.701-5.456 12.055-.88 17.404 2.071 2.421 4.273 4.357 5.865 7.214 2.215 3.976-1.264 7.964-3.662 11.11-1.74 2.283-3.553 4.51-3.574 7.541-.019 2.771 1.671 4.231 2.619 6.553.716 1.754.937.685-.386 1.837-.888.773-2.475 1.16-3.588 1.481-3.754 1.082-7.692.234-11.429-.587-7.281-1.6-14.537-2.699-21.907-.514-1.745.517-3.166 1.577-4.822 2.249-2.929 1.189-4.963.436-7.8-.817-3.599-1.59-6.666-2.464-10.604-1.589a91.693 91.693 0 0 0-3.009.735 45.633 45.633 0 0 0 2.789-3.72c.954-1.421 1.8-2.941 2.571-4.469.028-.056.065-.122.104-.191 2.236-.051 4.927-.701 5.97-1.036 3.366-1.081 6.231-3.121 8.946-5.327 5.348-4.346 10.213-9.49 14.307-15.029 8.134-11.007 13.877-26.84 8.465-40.182a172.165 172.165 0 0 0-1.857-4.413c-.428-.975-1.798-2.598-1.965-3.57-.367-2.142 3.849-7.522 5.154-10.004a86.757 86.757 0 0 0 4.71-10.645zm-218.749-1.309c4.198-6.759 9.625-10.773 7.766-19.563-1.976-9.339-6.547-16.025-4.605-25.997 1.581-8.113 5.222-15.873 11.445-21.467 4.74-4.26 11.031-6.708 15.41-11.28 2.934-3.063 3.434-6.88 3.646-10.833 1.494-6.533 3.312-12.158 7.705-17.753 3.508-4.468 7.347-9.282 12.085-12.679a57.452 57.452 0 0 1 4.792-2.736c.12-.052.237-.111.358-.161 7.13-2.939 16.078-4.356 23.674-5.644 4.214-.715 8.617-.94 12.857-.287 2.905.448 4.13 2.544 6.832 3.294 6.313 1.751 8.765-5.497 13.517-7.79 6.82-3.291 14.184-3.399 21.245-.914 6.439 2.266 11.076 6.882 13.758 13.161 2.616 6.124 1.269 15.197 6.711 19.797 5.206 4.401 13.492 2.045 19.747 2.754 7.889.894 11.76 4.039 15.14 11.189 3.512 7.431 2.506 14.86.718 22.616-1.61 6.984-4.152 14.774.331 21.284 3.552 5.158 10.811 5.86 14.33 11.049 3.922 5.783 2.044 14.42.654 20.697-1.817 8.21-5.214 15.196-9.042 22.604-1.564 3.027-3.25 6.206-3.48 9.672-.25 3.759 1.192 5.941 2.872 9.059 7.14 13.251-1.409 27.396-10.314 37.402-3.083 3.464-8.513 10.912-13.448 11.023-2.967.067-4.873-.609-7.343 1.655-2.228 2.042-3.486 5.617-5.398 8.013-9.51 11.919-24.063 16.47-38.698 12.386-3.399-.948-6.484-2.69-9.825-3.702-3.142-.952-5.262-.119-8.123 1.043-6.761 2.745-14.23 4.317-21.488 4.694-5.712.297-12.756-.036-16.774-4.764-4.318-5.081-6.172-11.943-14.609-10.235-11.465 2.321-29.197 1.288-34.454-11.517-1.283-3.126-1.91-6.662-2.118-10.018-.195-3.135.654-6.199.145-9.316-1.149-7.03-8.361-10.866-12.868-15.851-4.643-5.135-7.434-12.16-8.747-18.928-1.609-8.29 1.287-15.018 5.596-21.957zM369.3 425.636c-.084 2.799-.935 5.582-1.059 8.406-.092 2.101-.032 4.206.02 6.31-4.88-.287-9.776-.277-14.887.203a165.49 165.49 0 0 0-5.656.639c.534-4.131.296-8.73.322-12.706a617.32 617.32 0 0 0-.171-20.092c-.148-5.707.241-11.439.024-17.126-.11-2.876-.122-6.155-.467-9.349 5.176-1.004 10.165-2.775 14.586-5.211 1.147-.632 2.201-1.343 3.252-2.082l.049.061c.599.773 2.31 1.08 3.219 1.473.85.367 1.707.717 2.569 1.055-.465 2.873-.585 5.809-.787 8.702-.484 6.95-2.009 13.683-2.234 20.671-.203 6.372 1.411 12.697 1.22 19.046zm-220.281-8.831c-.926-4.699-1.717-9.18-2.172-13.95-.156-1.63-.295-3.315-.555-4.972 5.34-1.483 9.842-3.418 15.422-1.797 5.434 1.578 10.777 2.966 16.432 3.531 7.975.797 15.055-.953 22.257-3.099.389 1.721.402 3.597.272 5.303-.502 6.612-4.376 12.273-5.251 18.836-.339 2.544 2.896 4.768 5.172 3.94 5.996-2.181 10.107-8.586 16.379-10.351 4.035-1.135 4.714.925 4.557 4.543-.124 2.872-.318 5.49.195 8.352.519 2.897 4.383 4.182 6.717 2.733 5.414-3.362 7.115-11.375 13.484-13.571 6.794-2.343 9.573 6.501 15.173 8.416 2.358.806 5.679-1.402 5.335-4.064-.612-4.727-1.853-9.378-2.53-14.129-.478-3.352-.729-6.583-.575-9.964.098-2.141-.424-5.855 1.083-7.344 2.069-2.045 5.115 1.262 6.868 3.028 1.691 1.703 3.274 3.62 4.57 5.637 2.837 4.417 3.467 9.366 5.511 14.024 1.587 3.617 7.214 1.637 7.174-1.943-.038-3.401.803-6.927 1.554-10.222.608-2.669 1.792-10.559 4.727-11.888 4.742-2.149 5.658 10.877 5.845 13.441.477 6.567-2.145 13.119.728 19.31.734 1.582 3.348 2.736 5.013 2.04 3.609-1.509 5.023-3.864 6.518-7.373 1.003-2.355 5.548-13.284 8.941-11.591 2.68 1.337 1.551 10.261 1.757 12.921.297 3.82-.908 8.377 1.245 11.771 1.565 2.467 4.816 2.884 6.957.897 2.505-2.326 3.522-5.624 5.95-8.038a24.403 24.403 0 0 1 2.667-2.269c-.048 3.844-.067 7.689.014 11.523.082 3.855-.288 8.414 1.127 12.128-4.116.379-7.744-.025-12.082-.495-9.037-.978-17.137-4.408-26.337-4.789-9.736-.403-19.176 2.467-28.864 2.61-10.424.154-20.765-1.681-31.064-2.98-10.488-1.323-20.476.118-30.891 1.331-10.736 1.25-20.67.442-31.273-1.438-8.077-1.433-16.481-3.365-24.73-2.648.418-5.72-2.404-12.753-3.32-17.4zm58.09-22.315c.59-.175 1.183-.349 1.779-.52 2.516-.721 4.91-1.34 7.199-2.175-.162 2.583-.165 5.187-.241 7.711-.065 2.141-.35 4.313-.284 6.381-1.643.492-3.234 1.222-4.714 2.027-1.503.818-2.959 1.769-4.388 2.745.702-2.024 1.318-4.075 1.553-6.227.346-3.17.16-6.757-.904-9.942zm33.541-.949c-.126 4.023.247 8.262-.072 12.254-.07.872-.15 1.6-.197 2.246-3.206.836-6.122 2.695-8.584 4.886-.754.672-1.453 1.512-2.134 2.413-.393-3.827-1.485-7.252-5.702-9.11.112-2.168-.205-4.461-.274-6.724-.115-3.781-.063-7.734-.628-11.529.122-.099.246-.192.368-.295 4.148-3.491 7.023-8.299 8.029-13.641.053-.284.085-.569.13-.854a23.24 23.24 0 0 0 2.886.699c2.432.43 4.868.449 7.267.06-1.742 6.01-.92 14.237-1.089 19.595zm95.962 15.483c-2.41.963-4.703 2.316-6.656 3.746-.86.63-1.655 1.291-2.401 2.004-.297-2.437-.483-4.879-.819-7.314-.579-4.201-2.16-9.247-6.549-10.898-4.098-1.542-8.598 1.15-11.465 3.942-1.569 1.529-2.964 3.371-4.213 5.241.04-1.206.025-2.372-.135-3.444-.628-4.195-1.196-8.426-2.882-12.354-2.047-4.771-6.945-10.616-12.776-8.292-4.851 1.933-7.251 7.971-8.906 12.494a61.585 61.585 0 0 0-.965 2.873c-1.292-2.468-2.792-4.856-4.823-7.131-3.529-3.954-9.854-9.827-15.772-7.692-6.024 2.174-5.676 10.402-6.274 15.506-.502 4.289-.267 8.44.266 12.558-.197-.119-.388-.241-.592-.357a21.74 21.74 0 0 0-2.507-1.223c1.687-5.216.221-12.193.065-17.154-.152-4.82-.124-9.687-.382-14.497-.1-1.87-.307-3.648-1.092-5.14 1.046-.581 2.084-1.223 3.127-1.777a12.55 12.55 0 0 0 1.574 1.848c1.917 1.842 4.373 3.294 6.925 4.056 5.045 1.508 10.492.651 15.536-.404 4.161-.871 10.368-4.348 13.46-8.835a53.76 53.76 0 0 0 2.847.464c3.483.465 6.977.756 10.493.707 1.739-.024 3.601-.009 5.304-.426.127-.031.365-.085.627-.153.798 2.13 3.857 5.311 4.891 6.397 2.165 2.275 4.851 4.13 7.696 5.445 5.604 2.592 11.894 3.731 18.22 3.647-.211 2.856-.211 5.747-.427 8.409-.485 5.948-1.21 11.789-1.395 17.754zM197.574 291.299c.954-2.775 1.473-5.632 1.813-8.544.461-3.946.322-7.913-.573-11.713a34.596 34.596 0 0 1 2.79-5.633c2.034-3.345 4.548-6.152 7.279-8.942 2.507-2.562 4.089-4.797 3.01-8.53-1.124-3.887-2.944-7.093-2.726-11.341.225-4.383 2.672-7.639 4.746-11.311 2.321-4.109 3.11-7.125 3.008-11.821-.092-4.242-.68-9.199-.051-13.369.444-2.944 2.416-5.415 3.978-8.052 3.587-1.328 5.249 4.966 5.716 7.09.762 3.468 2.585 6.994 2.869 10.502.278 3.427-1.081 6.042 1.323 8.983 1.536 1.879 4.078 2.095 4.917 4.401 2.228 6.13-1.974 12.975 2.136 18.904 1.562 2.254 4.913 3.122 6.16 5.244 1.501 2.554.853 7.019 1.191 10.417-1.935 2.79-3.721 5.747-5.209 8.786-6.785 13.859-4.12 28.881 2.984 42.148 1.739 3.248 4.113 6.049 6.562 8.781 2.351 2.624 5.942 4.354 8.126 6.912 1.595 1.868.526 5.91.767 8.493.344 3.686.736 7.259 1.747 10.835 2.591 9.167 8.739 15.49 16.509 19.37-2.369 1.937-5.598 2.317-8.57 2.831-2.676.462-6.477.884-8.674-1.186-1.604-1.511-1.999-3.751-4.189-4.86-5.449-2.759-11.2 4.568-16.548 5.252-2.412.309-4.782.19-6.971-.667-.997-7.645-4.665-14.965-10.118-20.383-.86-.855-1.793-1.621-2.67-2.455-1.919-1.825-1.711-1.199-1.795-3.552-.106-2.941 1.171-6.123 1.46-9.08.569-5.815-.869-11.605-3.435-16.809a37.216 37.216 0 0 0-10.238-12.662 43.337 43.337 0 0 0-7.31-4.691c-.414-.21-.836-.408-1.256-.61.479-.928.935-1.847 1.242-2.738zM47.229 385.161c-6.765-.022-16.578-4.013-18.931-11.013-1.061-3.154-.067-6.623 1.426-9.501 1.748-3.369 4.604-4.687 7.226-7.184 6.806-6.481.912-13.243.839-20.884-.067-7.003 3.843-12.533 8.878-17.038 5.896-5.276 15.163-7.8 19.762-14.311 4.996-7.074 1.334-14.61-.921-21.922-1.181-3.831-2.644-7.906-2.563-11.96.08-3.987 2.451-7.006 3.378-10.725 2.159-8.655-7.566-13.986-11.86-20.072-5.318-7.538-8.818-15.297-4.243-24.012 1.634-3.113 4.248-5.606 5.784-8.721 1.596-3.237 1.239-6.851.481-10.283-1.862-8.427-5.663-15.901.927-23.342 4.858-5.486 12.789-9.313 20.031-8.005 8.404 1.518 11.112-5.513 8.999-12.587-2.228-7.46-6.899-15.124-5.393-23.083.635-3.357 1.49-6.591 3.574-9.363 2.204-2.931 5.434-4.098 8.285-6.255 2.257-1.708 4.191-4.616 3.102-7.621-1.998-5.508-3.909-9.882-4.054-15.944-.144-6.051.518-12.079 2.939-17.674.087-.201.181-.39.269-.587.42-.279.793-.66 1.072-1.184 1.991-3.748 3.712-7.79 7.313-10.242 5.372-3.657 11.859-3.233 17.112-6.127 14.387-7.928 14.063-.812 16.336 11.631.848 4.644 3.613 7.409 7.557 9.722 6.974 4.09 10.164 10.416 9.377 18.558-.398 4.119-1.898 8.051-2.626 12.109-.852 4.746.449 7.639 3.015 11.414 5.024 7.394 4.574 14.881 2.326 23.134-2.179 8.001-8.376 13.573-8.864 22.123-.228 3.994.418 7.917-.222 11.897-.725 4.502-1.912 8.884-2.341 13.442-.792 8.42 2.108 14.716 11.385 14.15 9.056-.553 14.81 4.311 20.094 11.38 5.474 7.324 5.847 14.976 3.691 23.614-1.922 7.699-6.791 16.106-2.693 23.877 1.563 2.964 3.775 5.614 5.261 8.623 1.588 3.219 1.68 7.015 1.24 10.535-.875 6.988-8.236 14.482-2.853 21.062 2.123 2.595 4.973 3.158 7.932 4.354 3.685 1.489 7.235 3.711 9.908 6.66 5.885 6.494 5.883 13.149 4.716 21.342-.541 3.797-.785 7.233 1.041 10.763 2.033 3.931 5.927 6.238 8.533 9.704 3.553 4.726 6.066 13.092 2.97 18.615-1.666 2.972-4.734 4.564-7.93 5.334-3.927.946-7.529 2.447-11.379 3.648-8.481 2.646-16.691 3.367-25.337 1.081-3.979-1.052-7.802-2.822-11.894-3.34-4.493-.569-8.764.538-13.075 1.713-8.162 2.225-16.822 6.044-25.371 6.139-4.286.048-7.67-.924-11.447-2.944-3.225-1.725-5.946-3.867-9.66-4.454-8.275-1.308-17.613 1.044-25.845 2.039-9.054 1.092-18.157 1.745-27.277 1.715zm63.643 41.923c-.057-5.253-.718-10.258-1.105-15.468-.35-4.707-.764-9.17-1.657-13.561 1.697 1.112 3.475 2.113 5.537 2.71 7.999 2.317 15.738 1.25 23.493-.558-.785 5.043-.648 10.547-.239 14.531.741 7.208 1.586 14.625 3.681 21.585-7.188 1.378-14.425 2.44-21.795 1.948-2.512-.168-5.061-.49-7.629-.852.31-3.382-.252-7.233-.286-10.335zm-95.427 15.713c-1.266-1.5-2.644-2.93-3.904-4.436-2.876-3.436-6.416-10.762-3.757-15.172 2.545-4.22 8.191-4.244 12.099-2.331 4.861 2.38 6.502 6.493 10.193 10.007 2.458 2.34 7.254.046 6.017-3.502-.734-2.105-1.109-4.872-.539-7.1 1.091-4.268 4.888-3.623 8.373-2.893 2.768.58 5.088 1.719 7.388 3.36 2.378 1.696 3.4 3.958 5.291 6.089 2.148 2.422 7.218.63 6.801-2.817-.282-2.336-.932-4.526-1.297-6.859-.591-3.776.242-7.771 1.083-11.492.627-2.777 1.399-6.024 2.919-8.438l.03-.044c6.335-.802 12.537-1.94 18.225-2.837 3.893-.614 9.649-2.389 13.97-1.675-.176 2.835.193 5.84.122 8.535-.123 4.671.276 9.728.579 14.411.326 5.039.164 10.153.048 15.206-.04 1.761-.138 3.458-.069 5.054-3.686-.298-7.348-.319-10.927.283-10.039 1.688-20.599 5.886-30.924 4.269-4.52-.708-8.501-3.061-13.064-3.702-5.484-.771-9.703.734-14.782 2.562-3.848 1.385-8.349 3.037-12.438 3.418-.485.044-.964.075-1.437.104zm483.765 33.877c-.545 3.64-1.948 8.678-4.679 11.401-2.253 2.246-7.985.234-11.284.501-8.868.717-16.705 3.553-25.722 2.219-9.683-1.433-18.189-2.609-27.98-1.142-9.387 1.406-18.318 3.189-27.812 1.518-9.656-1.699-18.528-3.839-28.442-3.25-9.67.574-19.329 2.629-29.04 1.944-9.135-.644-18.076-3.154-27.275-3.097-9.554.06-18.891 2.91-28.39 3.672-9.599.77-18.911-.937-28.462-1.273-9.424-.332-18.332.977-27.584 2.508-9.689 1.604-19.412.53-29.135-.126-19.414-1.309-38.291 4.375-57.674 1.303-8.894-1.409-17.674-2.358-26.653-3.004-9.987-.719-20.015-.155-30.021-.372-9.809-.213-19.557-1.354-29.376-1.186-9.852.168-19.681.766-29.537.83-2.253.015-4.51-.021-6.762.042-1.265.036-4.259.714-5.25.012-1.866-1.324-.941-5.846-.732-7.984.801-8.149.148-16.2.245-24.375.002-.156.032-.5.064-.898.869-.126 1.689-.298 2.094-.368 4.704-.805 9.426-2.209 13.903-3.841 3.99-1.454 7.023-2.565 11.236-1.285 4.593 1.395 8.615 3.053 13.496 3.455 9.715.8 19.863-1.894 29.293-3.926 9.148-1.971 18.899.811 28.137 1.63 9.568.849 18.995-.41 28.449-1.937 3.949-.638 7.653-1.995 11.69-1.955 4.836.048 9.649 1.049 14.401 1.87 9.231 1.595 18.584 3.513 27.996 3.196 9.664-.325 19.154-2.525 28.812-2.918 9.741-.396 19.289 2.009 28.963 2.736 9.44.71 18.175.639 27.553-.71 8.501-1.223 17.93-2.48 26.214.437 7.34 2.585 16.451 3.691 24.247 3.169 9.112-.61 17.988-3.277 27.19-3.739 9.082-.456 17.69 1.409 26.695 1.952 4.377.264 8.852.987 13.235.864 4.394-.123 8.773-1.338 13.073-2.134 3.434-.635 6.879-1.117 10.329-1.536 7.489.71 15.058 2.216 22.395.576 4.058-.907 7.099-.026 11.144-.198 2.116-.089 4.173-.695 6.304-.556 2.347.152 4.66.913 6.993 1.206 6.69.84 15.852-2.931 21.883 1.113 6.582 4.417 6.814 16.723 5.776 23.656z" fill="#000000" opacity="1" data-original="#000000"></path><path d="M319.558 90.875c7.561 10.072 19.873 15.859 32.301 16.311 6.583.24 12.996-.148 19.269-2.272 6.481-2.195 11.61-6.262 16.716-10.706 8.813-7.669 13.024-21.85 13.335-33.229.341-12.49-3.344-25.396-10.697-35.551-3.782-5.223-7.964-8.854-13.219-12.385-5.172-3.475-10.715-4.94-16.912-5.841-6.385-.928-13.684-.381-19.905 1.312-6.793 1.849-11.541 5.614-16.676 10.215-9.017 8.081-13.196 17.888-14.211 29.205a60.478 60.478 0 0 0-.686 4.641c-.764 7.086.157 14.148 1.626 21.085 1.383 6.536 5.091 11.929 9.059 17.215zm4.666-58.732c3.546-4.956 8.564-8.045 13.696-11.111 1.875-1.12 4.181-2.386 6.618-3.442a44 44 0 0 1 4.265-.645c4.325-.435 8.653-.432 12.864.632 2.243.567 4.91.576 7.053 1.499 1.869.804 3.8 2.534 5.514 3.65 8.305 5.412 14.482 16.974 16.053 26.652 1.576 9.709.557 19.289-3.119 28.451-3.646 9.087-13.062 16.192-22.394 18.565-20.994 5.341-42.18-7.804-46.403-28.925-2.307-11.538-1.184-25.49 5.853-35.326zM77.211 230.816c1.037 1.312 1.985 2.189 3.16 3.315-1.369 1.225-2.557 2.635-3.509 4.661-2.161 4.596-2.342 9.571-.419 14.271 1.841 4.499 5.236 8.201 8.958 11.252a45.898 45.898 0 0 0 4.652 3.365 18.485 18.485 0 0 0-2.636 2.343c-3.341 3.558-5.843 7.886-6.877 12.685-.963 4.472-.393 8.724 1.432 12.895 1.236 2.825 3.288 4.818 5.156 7.014-7.012 5.829-6.382 17.923-.056 24.845 6.041 6.61 23.278 12.194 28.478 1.794.994-1.987-.163-5.29-2.854-4.974-6.099.718-12.684 1.763-17.954-2.377-2.732-2.146-4.475-6.132-3.866-9.601.691-3.94 4.612-3.288 6.163-6.616 2.605-5.59-5.149-9.693-7.175-14.036-1.715-3.677-1.313-7.607.329-11.237 2.071-4.579 4.988-6.629 9.903-7.15 3.062-.324 5.043-2.643 4.399-5.775-.832-4.047-4.509-5.332-7.627-7.38-3.938-2.585-8.158-6.189-9.942-10.675-2.171-5.459 1.903-6.845 4.558-10.426 2.396-3.232 1.25-6.429-1.427-8.936-3.376-3.162-7.088-4.932-9.798-8.911-3.388-4.975-5.677-11.352-5.416-17.44.232-5.397 3.743-9.74 7.506-13.303 2.014-1.907 4.307-3.707 6.757-5.036 3.666-1.988 7.086-1.393 10.994-1.062 1.768.15 2.207-2.881.424-3.13-3.274-.458-6.59-1.535-9.918-1.107-3.588.461-7.06 2.214-10.019 4.215-5.245 3.546-9.946 8.514-11.852 14.676-2.096 6.777-.546 14.818 2.139 21.205 1.6 3.81 3.774 7.393 6.337 10.636zM79.526 357.509c.079.233.158.449.239.613.915 1.87 2.07 3.689 3.555 5.168 2.941 2.926 7.086 4.764 11.189 5.14 3.923.359 7.918-.642 11.458-2.32 2.072-.982 3.659-2.28 5.103-3.73 8.462 11.649 32.826 8.312 33.721-8.9.188-3.617-4.58-5.324-7.003-2.901-2.972 2.973-4.865 6.915-9.136 8.22-3.868 1.182-10.892.432-11.435-4.932-.401-3.957-4.589-5.837-7.683-3.182-4.266 3.661-8.094 8.374-14.372 8.011-6.776-.392-6.955-6.404-11.052-9.977-1.812-1.581-3.903-1.428-5.742 0-3.991 3.098-16.636 7.738-18.823.422-2.006-6.71 6.241-14.718 10.64-18.577 1.047-.919-.337-2.748-1.502-1.947-7.721 5.313-21.057 14.62-14.993 25.847 2.595 4.804 8.346 6.456 13.472 6.505 2.895.028 6.084-.42 8.802-1.415 1.343-.492 2.467-1.253 3.562-2.045zM109.911 161.102c3.465 2.265 7.812-2.212 5.653-5.653-2.298-3.662-4.669-6.55-3.45-11.112 1.291-4.831 5.028-5.544 9.45-6.265 1.902-.31 3.452-2.585 3.378-4.437-.282-7.078-8.497-9.744-10.411-16.292-2.813-9.625 4.772-21.403 15.819-18.728 2.561.62 3.562-3.1 1.082-3.927-9.281-3.097-20.468 3.281-23.314 12.48-1.432 4.629-1.255 10.138.377 14.688.753 2.097 1.855 4.071 3.137 5.886.253.358 1.137 1.377 2.036 2.373-4.998 1.676-9.024 5.309-10.666 10.915-2.327 7.947-.039 15.53 6.909 20.072zM296.446 297.827c-1.222 2.494-1.915 5.117-2.026 8.569-.172 5.343 1.319 11.346 4.808 15.482 3.349 3.97 8.2 6.304 13.289 7.058 2.529.375 5.478.613 7.963-.199 2.117-.692 3.288-2.373 4.779-3.461 2.395-1.748 2.603-6.241-.909-6.958-2.86-.584-4.234.502-6.902.918-3.032.472-7.226-.697-9.641-2.538-2.954-2.252-4.156-6.724-3.941-10.301.225-3.76 1.628-5.332 3.897-8.136 2.163-2.672 1.789-7.4-2.181-8.262-7.578-1.645-15.592-6.036-14.796-14.779.738-8.098 6.611-9.103 11.065-14.506 5.163-6.264-.808-9.966-4.238-14.716-4.651-6.442-.844-14.513 5.943-17.15 4.183-1.625 10.392-.452 12.816-5.101 1.412-2.708.283-5.352-1.486-7.512-2.18-2.659-4.398-5.042-6.37-7.898-5.169-7.484-6.403-15.868 1.825-21.77 7.67-5.502 16.478-5.967 25.499-7.246 2.514-.356 1.945-4.691-.604-4.464-12.782 1.138-29.539 1.185-37.166 13.815-2.989 4.949-2.998 13.313-.867 18.577 1.222 3.018 3.288 5.939 5.039 8.685.322.505 1.055 1.319 1.867 2.225-2.014.377-3.952 1.024-5.824 1.883-4.532 2.081-8.453 5.511-10.695 10.012-2.272 4.562-2.631 9.873-1.429 14.786.662 2.706 1.84 5.295 3.534 7.504.602.786 1.213 1.659 2.018 2.252.229.216.453.439.679.658-1.409.898-3.4 2.83-4.162 3.47-1.684 1.415-3.207 3.03-4.333 4.936-2.642 4.471-3.742 10.136-3.27 15.276.841 9.163 7.593 15.768 15.819 18.891z" fill="#000000" opacity="1" data-original="#000000"></path><path d="M350.948 319.137c-5.397-3.396-7.281-10.195-5.448-16.09 1.034-3.326-2.249-6.025-5.349-5.348-3.825.835-7.738 3.123-11.813 1.827-5.08-1.616-6.232-7.689-5.172-12.307 1.847-8.051 9.822-13.257 15.733-18.249 2.197-1.855-.944-4.887-3.13-3.13-9.159 7.361-21.882 14.382-20.607 28.053.533 5.71 3.927 11.529 9.407 13.712 2.714 1.081 5.717 1.38 8.616 1.141a15.463 15.463 0 0 0 2.435-.406c-.195 8.388 4.096 16.933 11.762 20.789 7.17 3.606 14.231 2.4 19.452-1.896 2.302 4.375 5.957 7.896 11.069 9.327 6.536 1.83 12.287-.511 16.554-4.773.281.275.575.544.899.799 3.195 2.508 7.777 3.013 11.327.904 6.509-3.866 5.612-12.327 4.289-18.614-.69-3.279-4.899-2.523-5.919 0-.883 2.183-1.515 4.453-2.362 6.652-.122.317-.76 2.613-1.183 2.785-.847.345-1.076-1.485-1.073-2.806.01-4.906-6.876-6.881-9.32-2.524-2.135 3.804-5.275 8.575-10.395 7.405-4.515-1.031-6.707-6.305-6.904-10.496-.22-4.671-6.85-7.102-9.271-2.511-2.861 5.429-7.529 9.573-13.597 5.756zM330.362 217.209c-1.364 3.547-1.74 7.969-.265 11.515.804 1.934 2.101 3.625 3.464 5.201a36.4 36.4 0 0 0 1.58 1.704c.147.149.298.33.445.51-1.993 2.742-3.512 5.472-3.907 9.344-.469 4.598.717 9.761 4.033 13.131 4.93 5.01 15.795 6.048 20.713.587 2.108-2.341.087-6.329-3.159-5.426-3.371.938-10.593-.214-12.001-3.67-2.892-7.094 6.38-10.072 3.904-16.245-1.975-4.925-8.116-5.79-8.335-11.91-.294-8.243 8.47-9.977 14.903-11.151 1.694-.309 1.315-3.121-.408-3.015-8.129.502-17.497.402-20.967 9.425zM189.462 126.601c4.701.516 9.574.893 14.307.796s9.091.975 13.84.255c4.066-.617 8.137-.356 12.214-.484 5.749-.005 11.477-.072 17.125-.029 16.554.125 33.343-3.238 49.763-1.304 4.736.558 8.55-.726 9.041-6.012.614-6.606 1.072-13.164-2.199-19.227-2.712-5.026-6.721-8.619-12.085-10.575-4.177-1.523-7.188-1.768-10.212-.528-1.112-8.172-2.823-16.366-7.941-23.193-5.644-7.529-15.648-10.305-24.733-9.206-8.94 1.081-17.657 5.521-23.551 12.384-3.025 3.522-5.398 7.627-6.567 12.147-.688 2.66-.98 5.478-.775 8.217.056.753.225 1.555.413 2.372-3.846-1.497-7.621-1.961-12.406.334-2.955 1.417-5.111 3.581-6.546 6.534-1.196 2.46-1.279 4.838-1.328 7.299-2.726-.23-5.374-.479-8.2.537-3.546 1.274-6.421 3.887-8.575 6.931-5.266 7.436 1.374 11.979 8.415 12.752zm-1.537-9.603c.652-1.394 2.966-2.71 4.462-3.128 3.022-.844 6.076.39 9.079.413 1.514.011 3.489-1.196 3.723-2.834.592-4.147-.642-9.403 3.837-11.773 4.346-2.3 7.641.396 11.493 2.145 2.779 1.262 5.489-.262 5.78-3.317.353-3.688-1.517-6.914-1.792-10.541-.367-4.825 1.764-9.503 4.726-13.207 4.415-5.521 11.078-9.376 17.999-10.704 7.663-1.47 16.614.276 21.276 6.99 4.87 7.012 5.813 15.929 6.771 24.072.344 2.924 3.375 4.344 5.703 2.362 2.72-2.314 3.995-2.541 7.222-1.433 2.37.814 4.447 1.699 6.269 3.492 4.705 4.631 5.071 10.335 4.572 16.521-.243 3.009-.197 2.979-3.24 2.712a73.153 73.153 0 0 0-7.443-.296c-6.32.082-12.441.74-18.726 1.314-9.83.897-19.777.905-29.736.856a133.415 133.415 0 0 0-4.695-.022c-2.82-.013-5.64-.019-8.457-.001-2.445-.129-4.882-.343-7.339-.15-3.604.283-6.69.592-10.305.141-2.7-.336-5.289-.093-7.988-.193-3.203-.119-8.926-.001-11.848-1.016-1.653-.574-2.263-.434-1.343-2.403zM399.2 110.713c.965 3.111 5.723 4.629 8.504 5.156 5.929 1.124 11.853 1.198 17.853 1.233 6.736.039 13.616.562 20.324-.155 6.16-.659 12.333-.125 18.475-.498 3.442.125 6.889.202 10.291-.182 5.357-.605 10.705.111 16.008-.67 1.747-.257 2.306-2.264 2.102-3.703-.886-6.267-3.419-12.753-8.847-16.421-2.954-1.996-6.552-3.362-10.126-3.553a10.285 10.285 0 0 0-2.864.263c2.159-11.329-4.535-27.226-17.021-26.312-6.723.492-13.543 4.419-17.646 9.694-1.99 2.557-3.235 5.545-3.955 8.7-.422 1.851-.718 3.8-.74 5.7-.005.445.085 1.052.176 1.697-3.265-1.338-6.568-1.871-10.501-.844-3.945 1.03-7.473 3.97-8.067 8.198-.016.115-.051.35-.082.623-2.22-.135-4.575.453-6.53 1.348-3.124 1.427-8.64 5.581-7.354 9.726zm15.746-3.919c1.969.151 3.704-.532 4.627-2.434 1.408-2.899-.936-4.891 2.828-6.834 3.886-2.007 7.735.802 11.178 2.14 1.75.681 3.334-.777 3.938-2.236 1.626-3.929-.473-8.257.464-12.47 1.182-5.315 4.874-9.29 9.657-11.755 5.512-2.842 11.675-3.125 14.936 2.896 2.878 5.315 5.208 12.954 2.191 18.538-1.089 2.016.701 4.235 2.887 3.755 1.72-.378 3.179-1.423 4.999-1.404 2.989.031 6.745 2.287 8.956 4.204 2.357 2.044 3.776 5.457 4.621 8.759-2.089-.041-4.17-.345-6.272-.267-2.405.09-4.744.71-7.137.931-4.521.417-9.171.153-13.752.059-2.54-.333-5.089-.537-7.635-.45-5.687.193-11.295.812-17.01.873-5.739.061-11.679.614-17.391.178-3.434-.262-8.678-.083-11.829-2.195 1.759-3.155 6.777-2.517 9.744-2.288z" fill="#000000" opacity="1" data-original="#000000"></path></g></svg>