<svg xmlns="http://www.w3.org/2000/svg" version="1.1" xmlns:xlink="http://www.w3.org/1999/xlink" width="512" height="512" x="0" y="0" viewBox="0 0 512 512" style="enable-background:new 0 0 512 512" xml:space="preserve"><g><path fill="#0a5b36" d="M251.346 449.356a7.508 7.508 0 0 1-7.508-7.508V372.25c0-4.147 3.361-7.508 7.508-7.508s7.508 3.361 7.508 7.508v69.598a7.508 7.508 0 0 1-7.508 7.508zM329.118 452.264a7.507 7.507 0 0 1-7.508-7.508V336.06c0-4.147 3.361-7.508 7.508-7.508s7.508 3.361 7.508 7.508v108.695a7.509 7.509 0 0 1-7.508 7.509z" opacity="1" data-original="#0a5b36"></path><circle cx="246.069" cy="317.045" r="67.218" fill="#0f7a4f" opacity="1" data-original="#0f7a4f"></circle><path fill="#0c6842" d="M313.288 317.048c0 37.119-30.099 67.218-67.218 67.218a66.92 66.92 0 0 1-41.889-14.65 67.062 67.062 0 0 0 19.019 2.73c37.119 0 67.208-30.099 67.208-67.218 0-21.28-9.89-40.259-25.319-52.568 27.86 8.2 48.199 33.969 48.199 64.488z" opacity="1" data-original="#0c6842"></path><circle cx="349.753" cy="156.451" r="67.218" fill="#158f5e" opacity="1" data-original="#158f5e"></circle><path fill="#0f7a4f" d="M416.975 156.453c0 37.119-30.099 67.218-67.218 67.218-5.37 0-10.59-.63-15.589-1.82 29.599-7.04 51.618-33.649 51.618-65.398 0-31.759-22.019-58.368-51.618-65.398 5-1.19 10.22-1.82 15.589-1.82 37.119 0 67.218 30.089 67.218 67.218z" opacity="1" data-original="#0f7a4f"></path><circle cx="437.805" cy="248.006" r="67.218" fill="#158f5e" opacity="1" data-original="#158f5e"></circle><path fill="#0f7a4f" d="M505.022 248.01c0 37.119-30.099 67.218-67.218 67.218-6.11 0-12.03-.82-17.659-2.35 32.939-4.34 58.358-32.519 58.358-66.638 0-31.009-20.999-57.118-49.558-64.868 2.9-.38 5.86-.58 8.86-.58 37.118 0 67.217 30.089 67.217 67.218zM360.518 449.356a7.507 7.507 0 0 1-7.508-7.508V341.599c0-4.147 3.361-7.508 7.508-7.508s7.508 3.361 7.508 7.508v100.249a7.507 7.507 0 0 1-7.508 7.508z" opacity="1" data-original="#0f7a4f"></path><path fill="#d2f0a2" d="M394.659 367.423c-28.979 0-52.471-23.492-52.471-52.471V200.193c0-28.979 23.492-52.471 52.471-52.471 28.979 0 52.471 23.492 52.471 52.471v114.758c0 28.98-23.492 52.472-52.471 52.472z" opacity="1" data-original="#d2f0a2"></path><path fill="#bcea73" d="M447.134 200.191v114.756c0 28.979-23.499 52.478-52.478 52.478-4.45 0-8.77-.55-12.89-1.6 22.749-5.74 39.589-26.349 39.589-50.878V200.191c0-14.49-5.87-27.609-15.37-37.099a52.362 52.362 0 0 0-24.219-13.77 52.14 52.14 0 0 1 12.89-1.6c14.49 0 27.609 5.87 37.109 15.37 9.499 9.49 15.369 22.61 15.369 37.099z" opacity="1" data-original="#bcea73"></path><path fill="#a3e440" d="M416.595 290.18a7.51 7.51 0 0 0-10.618 0l-3.81 3.81v-45.757c0-4.147-3.361-7.508-7.508-7.508s-7.508 3.361-7.508 7.508v11.227l-7.571-7.572a7.507 7.507 0 0 0-10.617-.001 7.506 7.506 0 0 0-.001 10.617l18.19 18.191v157.082c0 4.147 3.361 7.508 7.508 7.508s7.508-3.361 7.508-7.508V315.226l14.428-14.428a7.51 7.51 0 0 0-.001-10.618z" opacity="1" data-original="#a3e440"></path><path fill="#d2f0a2" d="M127.393 236.129c-28.979 0-52.471-23.492-52.471-52.471v-73.452c0-28.979 23.492-52.471 52.471-52.471 28.979 0 52.471 23.492 52.471 52.471v73.452c.001 28.979-23.492 52.471-52.471 52.471z" opacity="1" data-original="#d2f0a2"></path><path fill="#bcea73" d="M179.863 110.204v73.458c0 28.979-23.489 52.469-52.468 52.469-4.96 0-9.77-.69-14.32-1.98 22.019-6.23 38.149-26.469 38.149-50.488v-73.458c0-14.49-5.87-27.609-15.369-37.099a52.322 52.322 0 0 0-22.779-13.389c4.55-1.29 9.36-1.98 14.32-1.98 14.49 0 27.609 5.87 37.099 15.369 9.498 9.489 15.368 22.609 15.368 37.098z" opacity="1" data-original="#bcea73"></path><path fill="#a3e440" d="M149.329 158.886a7.509 7.509 0 0 0-10.617 0l-3.811 3.811V116.94c0-4.147-3.361-7.508-7.508-7.508s-7.508 3.361-7.508 7.508v11.227l-7.572-7.573a7.509 7.509 0 0 0-10.617 10.618l18.19 18.19v295.354c0 4.147 3.361 7.508 7.508 7.508s7.508-3.361 7.508-7.508V183.933l14.428-14.428a7.51 7.51 0 0 0-.001-10.619z" opacity="1" data-original="#a3e440"></path><circle cx="200.949" cy="253.095" r="79.666" fill="#1ca56f" opacity="1" data-original="#1ca56f"></circle><path fill="#158f5e" d="M280.619 253.09c0 43.999-35.669 79.667-79.667 79.667-12.63 0-24.569-2.94-35.179-8.18 37.049-6.84 65.118-39.309 65.118-78.337 0-31.369-18.129-58.498-44.479-71.488 4.71-.87 9.57-1.32 14.54-1.32 43.998 0 79.667 35.669 79.667 79.658z" opacity="1" data-original="#158f5e"></path><path fill="#0f7a4f" d="M224.279 216.655a7.507 7.507 0 0 0-10.617.001l-5.205 5.204v-8.667c0-4.147-3.361-7.508-7.508-7.508s-7.508 3.361-7.508 7.508v79.458c0 4.147 3.361 7.508 7.508 7.508s7.508-3.361 7.508-7.508v-49.557l15.822-15.823a7.506 7.506 0 0 0 0-10.616zM200.949 452.264a7.508 7.508 0 0 1-7.508-7.508v-71.292c0-4.147 3.361-7.508 7.508-7.508s7.508 3.361 7.508 7.508v71.292a7.507 7.507 0 0 1-7.508 7.508z" opacity="1" data-original="#0f7a4f"></path><path fill="#a3e440" d="M349.753 270.126c0 92.327-23.688 90.68-52.909 90.68s-52.909 1.647-52.909-90.68 29.857-196.494 52.909-196.494 52.909 104.167 52.909 196.494z" opacity="1" data-original="#a3e440"></path><path fill="#a3e440" d="M349.753 270.126c0 92.327-23.688 90.68-52.909 90.68s-52.909 1.647-52.909-90.68 29.857-196.494 52.909-196.494 52.909 104.167 52.909 196.494z" opacity="1" data-original="#a3e440"></path><path fill="#99d53b" d="M349.748 270.124c0 92.332-23.682 90.681-52.904 90.681-4.759 0-9.381.046-13.774-.287 22.535-1.675 39.13-13.132 39.13-90.394 0-74.591-19.496-156.899-39.13-185.777 4.668-6.87 9.347-10.712 13.774-10.712 23.051.001 52.904 104.169 52.904 196.489z" opacity="1" data-original="#99d53b"></path><path fill="#88ba31" d="M328.708 279.854a7.51 7.51 0 0 0-10.618 0l-13.738 13.738V231.022c0-4.147-3.361-7.508-7.508-7.508s-7.508 3.361-7.508 7.508v15.695l-10.678-10.678a7.508 7.508 0 0 0-10.618 10.618l21.296 21.296V441.848c0 4.147 3.361 7.508 7.508 7.508s7.508-3.361 7.508-7.508v-127.02l24.356-24.356a7.508 7.508 0 0 0 0-10.618z" opacity="1" data-original="#88ba31"></path><path fill="#a3e440" d="M8.038 337.498c0 71.114 32.054 69.845 71.594 69.845s71.594 1.269 71.594-69.845-40.401-151.346-71.594-151.346S8.038 266.384 8.038 337.498z" opacity="1" data-original="#a3e440"></path><path fill="#99d53b" d="M8.038 337.498c0 71.114 32.054 69.845 71.594 69.845s71.594 1.269 71.594-69.845-40.401-151.346-71.594-151.346S8.038 266.384 8.038 337.498z" opacity="1" data-original="#99d53b"></path><path fill="#8dc637" d="M151.223 337.497c0 71.118-32.049 69.848-71.588 69.848-5.14 0-10.14.02-14.969-.1 32.349-.79 56.618-7.87 56.618-69.748 0-60.098-28.849-126.706-56.618-145.895 5.09-3.53 10.14-5.45 14.969-5.45 31.19 0 71.588 80.228 71.588 151.345z" opacity="1" data-original="#8dc637"></path><path fill="#a3e440" d="M219.496 340.171c0 52.554-23.688 51.616-52.909 51.616s-52.909.938-52.909-51.616 29.857-111.846 52.909-111.846 52.909 59.292 52.909 111.846z" opacity="1" data-original="#a3e440"></path><path fill="#a3e440" d="M219.496 340.171c0 52.554-23.688 51.616-52.909 51.616s-52.909.938-52.909-51.616 29.857-111.846 52.909-111.846 52.909 59.292 52.909 111.846z" opacity="1" data-original="#a3e440"></path><path fill="#99d53b" d="M219.491 340.167c0 52.558-23.679 51.618-52.908 51.618-5.45 0-10.7.03-15.649-.26 21.579-1.25 37.259-8.6 37.259-51.358 0-41.109-18.269-86.337-37.259-104.097 5.28-4.94 10.63-7.75 15.649-7.75 23.059.001 52.908 59.299 52.908 111.847z" opacity="1" data-original="#99d53b"></path><path fill="#88ba31" d="M198.451 326.323a7.509 7.509 0 0 0-10.617 0l-13.739 13.739v-36.756c0-4.147-3.361-7.508-7.508-7.508s-7.508 3.361-7.508 7.508v138.543c0 4.147 3.361 7.508 7.508 7.508s7.508-3.361 7.508-7.508v-80.552l24.356-24.356a7.508 7.508 0 0 0 0-10.618z" opacity="1" data-original="#88ba31"></path><path fill="#a3e440" d="M501.49 365.772c0 37.876-17.072 37.201-38.132 37.201s-38.132.676-38.132-37.201 21.518-80.609 38.132-80.609 38.132 42.733 38.132 80.609z" opacity="1" data-original="#a3e440"></path><path fill="#a3e440" d="M501.49 365.772c0 37.876-17.072 37.201-38.132 37.201s-38.132.676-38.132-37.201 21.518-80.609 38.132-80.609 38.132 42.733 38.132 80.609z" opacity="1" data-original="#a3e440"></path><path fill="#99d53b" d="M501.492 365.776c0 37.869-17.079 37.199-38.139 37.199-4.48 0-8.78.03-12.77-.29 14.78-1.17 25.349-7.1 25.349-36.909 0-28.549-12.22-59.848-25.349-73.548 4.28-4.48 8.67-7.07 12.77-7.07 16.62.001 38.139 42.739 38.139 80.618z" opacity="1" data-original="#99d53b"></path><path fill="#88ba31" d="M483.198 358.915a7.507 7.507 0 0 0-10.617.001l-1.715 1.715v-21.427c0-4.147-3.361-7.508-7.508-7.508s-7.508 3.361-7.508 7.508V441.85c0 4.147 3.361 7.508 7.508 7.508s7.508-3.361 7.508-7.508v-59.982l12.333-12.334a7.51 7.51 0 0 0-.001-10.619zM98.668 309.904a7.508 7.508 0 0 0-10.617-10.618l-.911.911v-20.668c0-4.147-3.361-7.508-7.508-7.508s-7.508 3.361-7.508 7.508v64.223l-9.453-9.453a7.509 7.509 0 0 0-10.617 10.618l20.071 20.07v76.862c0 4.147 3.361 7.508 7.508 7.508s7.508-3.361 7.508-7.508V321.432z" opacity="1" data-original="#88ba31"></path><path fill="#0a5b36" d="M504.492 454.266H7.508a7.508 7.508 0 0 1 0-15.016h496.984c4.147 0 7.508 3.361 7.508 7.508s-3.361 7.508-7.508 7.508z" opacity="1" data-original="#0a5b36"></path></g></svg>