<svg xmlns="http://www.w3.org/2000/svg" version="1.1" xmlns:xlink="http://www.w3.org/1999/xlink" width="512" height="512" x="0" y="0" viewBox="0 0 512 512" style="enable-background:new 0 0 512 512" xml:space="preserve" class=""><g><path fill="#ffefd2" fill-rule="evenodd" d="M61.561 9.5C31.839 9.5 7.5 30.868 7.5 56.984V274.95c0 26.145 24.339 47.513 54.061 47.513h388.878c29.75 0 54.061-21.368 54.061-47.512V56.984C504.5 30.868 480.19 9.5 450.44 9.5z" clip-rule="evenodd" opacity="1" data-original="#ffefd2" class=""></path><path fill="#fea610" fill-rule="evenodd" d="M292.608 322.463h-73.102v68.536c8.934-6.836 19.27-12.872 30.953-17.649-2.548 30.607 1.546 30.722 6.872 70.339 3.007 22.226-1.574 45.367-13.028 58.811h48.306z" clip-rule="evenodd" opacity="1" data-original="#fea610"></path><path fill="#a2e62c" fill-rule="evenodd" d="M250.46 373.35c-11.683 4.777-22.02 10.813-30.954 17.65-16.006 12.213-27.546 27.088-34.303 42.277-11.425 25.687-9.278 52.404 7.874 69.223h51.226c11.454-13.444 16.035-36.585 13.029-58.811-5.326-39.617-9.421-39.732-6.873-70.339z" clip-rule="evenodd" opacity="1" data-original="#a2e62c"></path><path fill="#8bc725" fill-rule="evenodd" d="M185.202 433.277a887.336 887.336 0 0 1-37.653-31.866c-10.48-9.382-8.333-12.814-14.03 2.403-15.492 41.277-14.461 80.236 7.558 98.686h52c-17.152-16.82-19.3-43.536-7.875-69.223z" clip-rule="evenodd" opacity="1" data-original="#8bc725"></path><path d="M450.439 2H61.561C27.616 2 0 26.666 0 56.983v217.968c0 30.334 27.616 55.012 61.561 55.012h150.445v57.447c-12.213 9.887-22.221 21.526-29.344 34.186a902.43 902.43 0 0 1-30.11-25.772c-2.006-1.796-3.523-3.374-4.742-4.642-2.774-2.886-5.92-6.157-10.893-5.12-5.214 1.086-6.737 5.191-9.501 12.645l-.92 2.472c-8.165 21.758-11.883 42.854-10.75 61.005.794 12.722 3.982 23.804 9.342 32.816h-7.29a7.5 7.5 0 0 0 0 15H348.73a7.5 7.5 0 0 0 0-15h-48.623V329.963H450.44c33.945 0 61.561-24.678 61.561-55.012V56.983C512 26.666 484.384 2 450.439 2zM140.542 406.444l.357-.96c.514.486 1.061.991 1.645 1.514a918.018 918.018 0 0 0 33.587 28.626c-1.748 4.682-3.124 9.453-4.069 14.288-3.235 16.56-1.034 32.29 6.018 45.088h-34.108c-16.612-16.19-18-49.734-3.43-88.556zM218.945 495c-.784-11.89.178-22.163 2.848-29.979a7.5 7.5 0 1 0-14.195-4.85c-3.272 9.578-4.5 21.27-3.687 34.829h-7.622c-9.4-10.622-12.773-25.484-9.505-42.212 3.36-17.195 14.732-38.452 36.662-55.415.452-.28.873-.604 1.254-.97 5.247-3.947 11.08-7.647 17.533-10.993-.349 12.49.94 19.438 3.033 30.734 1.29 6.953 2.893 15.605 4.633 28.55 2.608 19.28-1.014 38.544-9.269 50.306h-21.685zm66.163 0h-27.224c6.847-14.398 9.462-33.231 6.88-52.31-1.788-13.31-3.43-22.164-4.749-29.28-2.542-13.713-3.702-19.971-2.081-39.438a7.499 7.499 0 0 0-10.322-7.56 145.764 145.764 0 0 0-20.606 10.426v-46.875h58.102V495zM497 274.95c0 22.064-20.887 40.013-46.561 40.013H61.561C35.887 314.963 15 297.013 15 274.95V56.983C15 34.936 35.887 17 61.561 17h388.878C476.113 17 497 34.936 497 56.983z" fill="#000000" opacity="1" data-original="#000000" class=""></path><path d="M219.618 155.076a7.502 7.502 0 0 0 6.924-4.613l4.165-9.977h27.045l4.17 9.98a7.502 7.502 0 0 0 6.923 4.61 7.5 7.5 0 0 0 6.917-10.394l-5.398-12.917a7.45 7.45 0 0 0-1.33-3.183l-17.897-42.825a7.499 7.499 0 0 0-9.812-4.028 7.462 7.462 0 0 0-3.857 3.667 4.199 4.199 0 0 0-.172.364l-24.597 58.925a7.5 7.5 0 0 0 6.919 10.391zm24.603-46.966 7.262 17.376h-14.515zM118.886 81.149H76.25a7.5 7.5 0 0 0 0 15h13.804v51.425a7.5 7.5 0 0 0 15 0V96.15h13.832a7.5 7.5 0 0 0 0-15zM155.994 147.574v-21.962h25.574v21.962a7.5 7.5 0 0 0 15 0V88.65a7.5 7.5 0 0 0-15 0v21.963h-25.574V88.649a7.5 7.5 0 0 0-15 0v58.925a7.5 7.5 0 0 0 15 0zM344.064 81.149a7.5 7.5 0 0 0-7.5 7.5v36.362l-30.531-40.852a7.502 7.502 0 0 0-10.498-1.518 7.481 7.481 0 0 0-3.002 5.896c0 .04-.008.07-.008.112v58.925a7.5 7.5 0 0 0 15 0v-36.362l30.531 40.852c.019.025.038.04.057.062a7.48 7.48 0 0 0 5.951 2.948 7.5 7.5 0 0 0 7.5-7.5V88.65a7.5 7.5 0 0 0-7.5-7.5zM408.653 109.925l16.731-15.828a7.5 7.5 0 0 0-10.308-10.896l-28.951 27.388V88.65a7.5 7.5 0 0 0-15 0v58.925a7.5 7.5 0 0 0 15 0v-16.336l11.159-10.557 15.308 30.277a7.498 7.498 0 0 0 10.077 3.31 7.5 7.5 0 0 0 3.309-10.078zM203.318 189.486a7.5 7.5 0 0 0-10.458 1.773l-14.845 20.908-14.844-20.907a7.5 7.5 0 1 0-12.23 8.684l19.574 27.569v27.014a7.5 7.5 0 0 0 15 0v-27.013l19.576-27.57a7.5 7.5 0 0 0-1.773-10.458zM247.195 188.245c-17.209 0-31.209 13.976-31.209 31.155v11.5c0 17.195 14 31.184 31.209 31.184s31.209-13.99 31.209-31.185V219.4c0-17.179-14-31.155-31.21-31.155zm16.209 42.654c0 8.925-7.272 16.185-16.21 16.185s-16.208-7.26-16.208-16.185V219.4c0-8.908 7.271-16.155 16.209-16.155s16.209 7.247 16.209 16.155zM340.484 188.102a7.5 7.5 0 0 0-7.5 7.5v40.017c0 11.08-11.015 11.4-12.271 11.4-1.256 0-12.272-.32-12.272-11.4v-40.017a7.5 7.5 0 0 0-15 0v40.017c0 17.332 13.72 26.4 27.272 26.4 13.552 0 27.271-9.068 27.271-26.4v-40.017a7.5 7.5 0 0 0-7.5-7.5zM378.625 188.102a7.5 7.5 0 0 0-7.5 7.5v30.435a7.5 7.5 0 0 0 15 0v-30.435a7.5 7.5 0 0 0-7.5-7.5zM378.625 246.655a7.5 7.5 0 0 0-7.5 7.5v.372a7.5 7.5 0 0 0 15 0v-.372a7.5 7.5 0 0 0-7.5-7.5z" fill="#000000" opacity="1" data-original="#000000" class=""></path></g></svg>