<svg xmlns="http://www.w3.org/2000/svg" version="1.1" xmlns:xlink="http://www.w3.org/1999/xlink" width="512" height="512" x="0" y="0" viewBox="0 0 32 32" style="enable-background:new 0 0 512 512" xml:space="preserve"><g><path fill="#ffd54f" d="M29.764 23.453 18.576 5.52a3.027 3.027 0 0 0-5.146-.009L2.224 23.474A3.027 3.027 0 0 0 4.807 28h22.386a3.028 3.028 0 0 0 2.571-4.547z" data-name="48 Warning" opacity="1" data-original="#ffd54f"></path><g data-name="Layer 52"><path d="M27.193 28H4.807a3.027 3.027 0 0 1-2.583-4.526L13.43 5.511a3.027 3.027 0 0 1 5.146.009l11.188 17.933A3.028 3.028 0 0 1 27.193 28zM15.139 6.549 3.934 24.512A1.008 1.008 0 0 0 4.807 26h22.386a1.009 1.009 0 0 0 .861-1.509S16.866 6.555 16.861 6.549a1.02 1.02 0 0 0-1.722 0z" fill="#000000" opacity="1" data-original="#000000"></path><path d="m15.087 18.624-.266-3.976c-.052-.8-.325-2.093.286-2.743.465-.5 1.566-.586 1.9.107a4.873 4.873 0 0 1 .182 2.536l-.356 4.093a3.221 3.221 0 0 1-.249 1.12.708.708 0 0 1-1.254.013 3.763 3.763 0 0 1-.243-1.15zm.921 5.463a1.24 1.24 0 0 1-.142-2.471 1.24 1.24 0 1 1 .142 2.471z" fill="#000000" opacity="1" data-original="#000000"></path></g></g></svg>