<svg xmlns="http://www.w3.org/2000/svg" version="1.1" xmlns:xlink="http://www.w3.org/1999/xlink" width="512" height="512" x="0" y="0" viewBox="0 0 340 340" style="enable-background:new 0 0 512 512" xml:space="preserve" class=""><g><path fill="#f74f73" d="m203.427 74.591-82.568 1.86-.715-32.34c0-6.709 7.953-15.308 7.953-15.308a16.421 16.421 0 0 1 6.717-1.427h56.072a16.48 16.48 0 0 1 16.48 16.48V50.9z" opacity="1" data-original="#f74f73"></path><path fill="#cc3b5e" d="M207.366 50.9c-8.705 2.681-22.857 5.4-44.516 5.4-26.38 0-33.309-15.554-34.748-27.478a16.472 16.472 0 0 0-9.767 15.041v36.972h89.031z" opacity="1" data-original="#cc3b5e"></path><path fill="#87a574" d="M93.358 87.608a37.158 37.158 0 1 0-20.19 68.35h43.464v-55.227z" opacity="1" data-original="#87a574"></path><path fill="#7aaeed" d="M105.116 79.785a11.816 11.816 0 0 1 14.412-9.136 249.418 249.418 0 0 0 57.3 6.569 189.042 189.042 0 0 0 56.713-8.518 9.072 9.072 0 0 1 11.859 7.664c.688 7.319 1.484 17.12 1.845 26.447 0 0-4.749 32.025-33.114 29.77l-99.671.385-7.9-10.8c-.555-4.835-3.59-17.657-3.59-17.657a138.946 138.946 0 0 1 2.146-24.724z" opacity="1" data-original="#7aaeed"></path><path fill="#526d3a" d="M65.747 136.4a11.921 11.921 0 0 1-2.352-.233C52.9 134.076 47 125.811 48.711 115.6a23.135 23.135 0 0 1 26.636-19c7.461 1.249 13.488 5.056 16.967 10.719 3.844 6.256 4.423 14.209 1.676 23a3.5 3.5 0 1 1-6.682-2.088c2.126-6.8 1.795-12.768-.958-17.248-2.439-3.97-6.644-6.557-12.159-7.48a16.135 16.135 0 0 0-18.576 13.25c-1.088 6.5 2.333 11.186 9.149 12.545 3.11.628 6.26-2.037 7.388-4.857a4.728 4.728 0 0 0-1.986-6.285 3.5 3.5 0 0 1 3.742-5.916 11.729 11.729 0 0 1 4.744 14.8c-1.936 4.845-6.936 9.36-12.905 9.36z" opacity="1" data-original="#526d3a"></path><path fill="#497fce" d="M246.853 124.044c.692-5.447.7-13.163.393-21.233-20.394 12.06-46.669 12.064-46.669 12.064h-75.643c-12.111 0-18.616-5.6-21.964-10.362a169.3 169.3 0 0 0 .979 19.33c1.429 12.461 9.8 11.5 9.8 11.5H215c28.36 2.257 31.853-11.299 31.853-11.299z" opacity="1" data-original="#497fce"></path><g fill="#4a4a60"><path d="M156.02 67.571a8.036 8.036 0 0 1 8.036 8.036v60.7h-16.072v-60.7a8.036 8.036 0 0 1 8.036-8.036zM199.329 67.571a8.036 8.036 0 0 1 8.036 8.036v60.7h-16.072v-60.7a8.036 8.036 0 0 1 8.036-8.036z" fill="#4a4a60" opacity="1" data-original="#4a4a60"></path><rect width="40.117" height="85.077" x="19.399" y="164.144" rx="14.566" transform="rotate(11.19 39.304 207.273)" fill="#4a4a60" opacity="1" data-original="#4a4a60"></rect></g><path fill="#ffb655" d="M325.874 243.355v-20.629l-24.58-32.086-27.064-.74a19.153 19.153 0 0 1-16.166-10.016 241.72 241.72 0 0 0-19.67-30.959 37.218 37.218 0 0 0-29.508-14.6h-89.767A38.656 38.656 0 0 0 91.594 145.8 169.94 169.94 0 0 0 61.3 187.471L47.948 228.3a125.324 125.324 0 0 0-1.37 23.836l15.523 9.3H316.6z" opacity="1" data-original="#ffb655"></path><path fill="#ffeedc" d="M301.294 190.64v15.691a15.971 15.971 0 0 0 15.22 15.954l9.36.441s2.942-32.086-24.58-32.086z" opacity="1" data-original="#ffeedc"></path><path fill="#f74f73" d="M61.3 187.471a25.074 25.074 0 0 1 4.365 2.217 16.17 16.17 0 0 1 7.427 15.251l-.772 7.911a18.245 18.245 0 0 1-22.3 16q-1.022-.237-2.072-.549s4.241-25.223 13.352-40.83z" opacity="1" data-original="#f74f73"></path><path fill="#4a4a60" d="M113.4 153.229a23.882 23.882 0 0 0-4.582 3.3 79.689 79.689 0 0 0-17.688 24.62 8.265 8.265 0 0 0 7.47 11.791h7.632a7.165 7.165 0 0 0 7.165-7.164z" opacity="1" data-original="#4a4a60"></path><rect width="39.843" height="42.805" x="128.434" y="150.135" fill="#4a4a60" rx="6.486" opacity="1" data-original="#4a4a60"></rect><path fill="#4a4a60" d="M234.867 181.706a113.735 113.735 0 0 0-12.9-24.452 17.147 17.147 0 0 0-13.939-7.119h-17.59a7.127 7.127 0 0 0-7.127 7.126v28.552a7.127 7.127 0 0 0 7.127 7.127h36.723a8.251 8.251 0 0 0 7.706-11.234z" opacity="1" data-original="#4a4a60"></path><path fill="#e87b31" d="M138.594 213.165h-10.16a3.5 3.5 0 0 1 0-7h10.16a3.5 3.5 0 0 1 0 7zM193.475 213.165h-10.161a3.5 3.5 0 0 1 0-7h10.161a3.5 3.5 0 0 1 0 7zM309.143 270.891a16.732 16.732 0 0 0 16.731-16.732v-10.8c-8.134 7.991-19.06 8.784-19.06 8.784H46.584c.037.968.078 1.938.137 2.916a16.785 16.785 0 0 0 16.714 15.836z" opacity="1" data-original="#e87b31"></path><circle cx="108.641" cy="271.326" r="41.297" fill="#4a4a60" opacity="1" data-original="#4a4a60"></circle><circle cx="108.641" cy="271.326" r="19.187" fill="#ffffff" opacity="1" data-original="#ffffff"></circle><circle cx="261.93" cy="271.326" r="41.297" fill="#4a4a60" opacity="1" data-original="#4a4a60"></circle><circle cx="261.93" cy="271.326" r="19.187" fill="#ffffff" opacity="1" data-original="#ffffff"></circle></g></svg>