<svg xmlns="http://www.w3.org/2000/svg" version="1.1" xmlns:xlink="http://www.w3.org/1999/xlink" width="512" height="512" x="0" y="0" viewBox="0 0 512 512" style="enable-background:new 0 0 512 512" xml:space="preserve" class=""><g><path fill="#79d8eb" d="M90 448h-2v-24a24 24 0 0 0-24-24H48a24 24 0 0 0-24 24v64h96v-10a30 30 0 0 0-30-30zM422 448h2v-24a24 24 0 0 1 24-24h16a24 24 0 0 1 24 24v64h-96v-10a30 30 0 0 1 30-30z" opacity="1" data-original="#79d8eb"></path><path fill="#fac850" d="M392 488H120V256h272z" opacity="1" data-original="#fac850" class=""></path><path fill="#fa5d3f" d="M120 456h72v32h-72zM320 456h72v32h-72zM192 208h128v280H192z" opacity="1" data-original="#fa5d3f"></path><path fill="#fac850" d="M232 424h48v64h-48zM256.004 24l22.419 45.427 50.132 7.284-36.276 35.36L300.843 162l-44.839-23.573L211.165 162l8.563-49.929-36.275-35.36 50.131-7.284z" opacity="1" data-original="#fac850" class=""></path><path d="M300.842 170a8 8 0 0 1-3.722-.919L256 147.465l-41.116 21.616a8 8 0 0 1-11.608-8.434l7.853-45.783-33.26-32.424a8 8 0 0 1 4.431-13.646l45.969-6.679 20.561-41.656a8 8 0 0 1 14.348 0l20.558 41.656 45.969 6.679a8 8 0 0 1 4.434 13.646l-33.264 32.424 7.853 45.783a8 8 0 0 1-7.886 9.353zM256 130.427a7.991 7.991 0 0 1 3.723.919l30.491 16.03-5.814-33.952a8 8 0 0 1 2.3-7.081L311.363 82.3l-34.09-4.953a8 8 0 0 1-6.023-4.377L256 42.077l-15.246 30.89a8 8 0 0 1-6.023 4.377L200.645 82.3l24.667 24.046a8 8 0 0 1 2.3 7.081l-5.823 33.952 30.491-16.03a7.991 7.991 0 0 1 3.72-.922z" fill="#000000" opacity="1" data-original="#000000" class=""></path><g fill="#fac850"><path d="m386.327 112 15.551 31.511 34.775 5.053-25.163 24.528 5.94 34.635-31.103-16.352-31.104 16.352 5.94-34.635L336 148.564l34.775-5.053zM453.486 216l10.666 21.61L488 241.076l-17.257 16.821 4.074 23.752-21.331-11.214-21.33 11.214 4.074-23.752-17.257-16.821 23.848-3.466zM125.673 112l-15.551 31.511-34.775 5.053 25.163 24.528-5.94 34.635 31.103-16.352 31.104 16.352-5.94-34.635L176 148.564l-34.775-5.053zM58.514 216l-10.666 21.61L24 241.076l17.257 16.821-4.074 23.752 21.331-11.214 21.33 11.214-4.074-23.752 17.257-16.821-23.848-3.466zM224 184h64v48h-64z" fill="#fac850" opacity="1" data-original="#fac850" class=""></path></g><path d="M216 320h16v16h-16zM248 320h16v16h-16zM280 320h16v16h-16zM216 352h16v16h-16zM248 352h16v16h-16zM280 352h16v16h-16zM216 384h16v16h-16zM248 384h16v16h-16zM280 384h16v16h-16zM216 256h16v16h-16zM248 256h16v16h-16zM280 256h16v16h-16zM216 288h16v16h-16zM248 288h16v16h-16zM280 288h16v16h-16zM330.416 154.293l22.151 21.592-5.229 30.489a8 8 0 0 0 11.608 8.434l27.381-14.395 27.381 14.395a8 8 0 0 0 11.607-8.434l-5.23-30.489 22.152-21.592a8 8 0 0 0-4.434-13.646l-30.612-4.447-13.691-27.741a8 8 0 0 0-14.347 0L365.462 136.2l-30.612 4.448a8 8 0 0 0-4.434 13.646zm41.509-2.865a8 8 0 0 0 6.024-4.376l8.378-16.976 8.378 16.976a8 8 0 0 0 6.023 4.376l18.733 2.722-13.555 13.214a8 8 0 0 0-2.3 7.081l3.2 18.658-16.756-8.81a8 8 0 0 0-7.445 0l-16.756 8.81 3.2-18.658a8 8 0 0 0-2.3-7.081l-13.557-13.214zM417.822 233.159a8 8 0 0 0-4.433 13.645l14.245 13.886-3.363 19.61a8 8 0 0 0 11.607 8.434l17.608-9.257 17.608 9.257A8 8 0 0 0 482.7 280.3l-3.363-19.606 14.247-13.894a8 8 0 0 0-4.434-13.645l-19.686-2.855-8.8-17.839a8 8 0 0 0-14.348 0l-8.8 17.839zM450 241.151l3.491-7.074 3.492 7.074a8 8 0 0 0 6.017 4.376l7.807 1.135-5.649 5.506a8 8 0 0 0-2.3 7.082l1.334 7.775-6.983-3.671a8 8 0 0 0-7.445 0l-6.983 3.671 1.333-7.775a8 8 0 0 0-2.3-7.082l-5.648-5.506 7.807-1.135a8 8 0 0 0 6.027-4.376zM69.763 154.293l22.152 21.592-5.23 30.489a8 8 0 0 0 11.607 8.434l27.381-14.395 27.381 14.395a8 8 0 0 0 11.608-8.434l-5.229-30.489 22.151-21.592a8 8 0 0 0-4.434-13.646l-30.612-4.447-13.691-27.74a8 8 0 0 0-14.347 0l-13.691 27.74-30.609 4.447a8 8 0 0 0-4.434 13.646zm41.509-2.865a8 8 0 0 0 6.023-4.376l8.378-16.976 8.378 16.976a8 8 0 0 0 6.024 4.376l18.733 2.722-13.555 13.214a8 8 0 0 0-2.3 7.081l3.2 18.658-16.756-8.81a8.006 8.006 0 0 0-7.445 0L105.2 193.1l3.2-18.658a8 8 0 0 0-2.3-7.081L92.539 154.15zM18.416 246.8l14.245 13.89L29.3 280.3a8 8 0 0 0 11.608 8.434l17.608-9.257 17.608 9.257a8 8 0 0 0 11.605-8.434l-3.363-19.61 14.245-13.89a8 8 0 0 0-4.433-13.645L74.491 230.3l-8.8-17.839a8 8 0 0 0-14.348 0l-8.8 17.839-19.693 2.859a8 8 0 0 0-4.434 13.641zM49 245.527a8 8 0 0 0 6.023-4.376l3.492-7.074 3.491 7.074a8 8 0 0 0 6.023 4.376l7.807 1.135-5.648 5.506a8 8 0 0 0-2.3 7.082l1.333 7.775-6.983-3.671a8 8 0 0 0-7.445 0l-6.983 3.671 1.334-7.775a8 8 0 0 0-2.3-7.082l-5.649-5.506zM144 288h24v16h-24zM144 328h24v16h-24zM144 368h24v16h-24zM144 408h24v16h-24z" fill="#000000" opacity="1" data-original="#000000" class=""></path><path d="M464 392h-16a32.036 32.036 0 0 0-32 32v16.474a37.8 37.8 0 0 0-16 6.558V408h-16v40h-56V264h56v128h16V256a8 8 0 0 0-8-8h-64v-40a8 8 0 0 0-8-8h-24v-16a8 8 0 0 0-8-8h-64a8 8 0 0 0-8 8v16h-24a8 8 0 0 0-8 8v40h-64a8 8 0 0 0-8 8v48h16v-40h56v184h-56V320h-16v127.032a37.8 37.8 0 0 0-16-6.558V424a32.036 32.036 0 0 0-32-32H48a32.036 32.036 0 0 0-32 32v64a8 8 0 0 0 8 8h464a8 8 0 0 0 8-8v-64a32.036 32.036 0 0 0-32-32zM232 192h48v32h-48zM32 424a16.019 16.019 0 0 1 16-16h16a16.019 16.019 0 0 1 16 16v16.474A38.061 38.061 0 0 0 48 478v2H32zm32 56v-2a22.025 22.025 0 0 1 22-22h4a22.025 22.025 0 0 1 22 22v2zm64-16h56v16h-56zm72-248h16v16a8 8 0 0 0 8 8h64a8 8 0 0 0 8-8v-16h16v264h-24v-56a8 8 0 0 0-8-8h-48a8 8 0 0 0-8 8v56h-24zm40 264v-48h32v48zm88-16h56v16h-56zm72 16v-2a22.025 22.025 0 0 1 22-22h4a22.025 22.025 0 0 1 22 22v2zm80 0h-16v-2a38.061 38.061 0 0 0-32-37.526V424a16.019 16.019 0 0 1 16-16h16a16.019 16.019 0 0 1 16 16z" fill="#000000" opacity="1" data-original="#000000" class=""></path><path d="M344 368h24v16h-24zM344 408h24v16h-24zM344 288h24v16h-24zM344 328h24v16h-24z" fill="#000000" opacity="1" data-original="#000000" class=""></path></g></svg>