<svg xmlns="http://www.w3.org/2000/svg" version="1.1" xmlns:xlink="http://www.w3.org/1999/xlink" width="512" height="512" x="0" y="0" viewBox="0 0 64 64" style="enable-background:new 0 0 512 512" xml:space="preserve"><g><path fill="#f05a8c" d="M62 2.25H48v14.5h14a1.75 1.75 0 0 0 1.415-2.779L60.164 9.5l3.251-4.471A1.75 1.75 0 0 0 62 2.25z" opacity="1" data-original="#f05a8c"></path><path fill="#ffe246" d="M49.75 28V2a1.75 1.75 0 0 0-3.5 0v26z" opacity="1" data-original="#ffe246"></path><path fill="#646e78" d="M49 58.75H27a1.75 1.75 0 0 1 0-3.5h22a7.25 7.25 0 0 0 0-14.5H38a10.75 10.75 0 0 1 0-21.5h3a1.75 1.75 0 0 1 0 3.5h-3a7.25 7.25 0 0 0 0 14.5h11a10.75 10.75 0 0 1 0 21.5z" opacity="1" data-original="#646e78"></path><path fill="#7aeaab" d="M20.6 63.75h-16a1.75 1.75 0 1 1 0-3.5h16a1.75 1.75 0 0 1 0 3.5z" opacity="1" data-original="#7aeaab"></path><path fill="#f05a8c" d="M23.439 36.7A12.164 12.164 0 0 0 12.6 30.25 12.333 12.333 0 0 0 2.26 49.3l8.872 13.65a1.75 1.75 0 0 0 2.934 0l8.873-13.65a12.164 12.164 0 0 0 .5-12.6z" opacity="1" data-original="#f05a8c"></path><circle cx="12.6" cy="42.6" r="5.25" fill="#f0faff" opacity="1" data-original="#f0faff"></circle><path fill="#7aeaab" d="M52 29.75h-8a1.75 1.75 0 0 1 0-3.5h8a1.75 1.75 0 0 1 0 3.5z" opacity="1" data-original="#7aeaab"></path></g></svg>