<svg xmlns="http://www.w3.org/2000/svg" version="1.1" xmlns:xlink="http://www.w3.org/1999/xlink" width="512" height="512" x="0" y="0" viewBox="0 0 340 340" style="enable-background:new 0 0 512 512" xml:space="preserve" class=""><g><path fill="#f74f73" d="m167.561 23.284 2.112-6.118 2.225 6.078a22.463 22.463 0 0 0 30.924 12.474l5.82-2.833-2.725 5.871a22.462 22.462 0 0 0 13.046 30.687l6.118 2.112L219 73.78a22.463 22.463 0 0 0-12.471 30.92l2.833 5.82-5.871-2.725a22.462 22.462 0 0 0-30.691 13.05l-2.112 6.118-2.225-6.078a22.462 22.462 0 0 0-30.924-12.474l-5.82 2.833 2.725-5.871A22.462 22.462 0 0 0 121.4 74.686l-6.118-2.112 6.078-2.225a22.463 22.463 0 0 0 12.474-30.924L131 33.6l5.871 2.725a22.462 22.462 0 0 0 30.69-13.041z" opacity="1" data-original="#f74f73"></path><circle cx="170.183" cy="72.064" r="20.723" fill="#ffffff" opacity="1" data-original="#ffffff"></circle><path fill="#88a873" d="M58.746 214.339s10.889-19.018 42.586-19.2c0 0-7.087 30.343-42.586 19.2z" opacity="1" data-original="#88a873"></path><path fill="#7fa0e2" d="M222.268 255.814h-16.487c2.341-7.227 9.382-11.175 9.382-11.175l-3.758-2.626a9.524 9.524 0 0 0-13.858 3.172c-2 3.377-7.183 10.629-14.772 10.629h-8.524V243.16a49.527 49.527 0 0 0 14.884-13.06 9.778 9.778 0 0 0 1.069-9.96l-2.593-5.694s-4.9 8.858-13.36 11.644v-17.01a5.386 5.386 0 0 0-5.387-5.386h-2.842a5.386 5.386 0 0 0-5.387 5.386v16.487c-7.227-2.34-11.175-9.381-11.175-9.381l-2.626 3.758a9.523 9.523 0 0 0 3.154 13.847c3.37 2 10.647 7.181 10.647 14.783v7.242h-7.242c-7.59 0-12.771-7.252-14.773-10.629a9.523 9.523 0 0 0-13.857-3.172l-3.758 2.626s7.041 3.948 9.381 11.175H113.9a5.387 5.387 0 0 0-5.387 5.387v2.842a5.387 5.387 0 0 0 5.387 5.387h17.009c-2.785 8.458-11.643 13.36-11.643 13.36l5.694 2.594a9.776 9.776 0 0 0 9.959-1.07 49.5 49.5 0 0 0 13.061-14.886h12.655v8.524c0 7.589-7.252 12.771-10.629 14.773a9.523 9.523 0 0 0-3.172 13.857l2.626 3.758s3.948-7.041 11.175-9.381v16.487a5.386 5.386 0 0 0 5.387 5.386h2.842a5.386 5.386 0 0 0 5.387-5.386v-17.009c8.458 2.785 13.36 11.643 13.36 11.643l2.593-5.694a9.778 9.778 0 0 0-1.069-9.96 49.527 49.527 0 0 0-14.884-13.062V269.43h13.936a49.527 49.527 0 0 0 13.062 14.884 9.778 9.778 0 0 0 9.96 1.07l5.694-2.594s-8.858-4.9-11.644-13.36h17.009a5.387 5.387 0 0 0 5.387-5.387V261.2a5.387 5.387 0 0 0-5.387-5.386z" opacity="1" data-original="#7fa0e2"></path><path fill="#f29251" d="M314.99 154.381a20.957 20.957 0 0 0-11.9-9.45c4.153-4.442 14.314-8.654 14.314-8.654a36.2 36.2 0 0 0-22.664-2.877l4.358-12.062c-17.093 2.544-23.589 11.82-23.589 11.82l-3.914-14.29c-10.126 21.153-32.678 23.776-32.678 23.776a42.7 42.7 0 0 1-18.289 34.347l14.744 1.475s-8.062 7.953-7.717 25.231l11.165-6.311a36.2 36.2 0 0 0 6.626 21.869s2.457-10.722 6.143-15.558a20.957 20.957 0 0 0 11.3 10.152s-2.949-16.492 2.949-25.569c0 0 11.794 10.58 13.76 23.112 0 0 4.177-3.195 6.388-13.269 0 0 6.143 9.829 27.029 7.371-1.063-21-9.677-25.71-9.677-25.71 9.563-3.862 12.016-8.514 12.016-8.514-12.684.154-25.085-9.709-25.085-9.709 7.969-7.335 24.721-7.18 24.721-7.18z" opacity="1" data-original="#f29251"></path><path fill="#88a873" d="M54.176 225.552a3.5 3.5 0 0 1-2.945-5.386c13.827-21.627 7.357-55.567 7.29-55.908a3.5 3.5 0 0 1 6.867-1.357c.3 1.5 7.1 37.016-8.26 61.036a3.5 3.5 0 0 1-2.952 1.615z" opacity="1" data-original="#88a873"></path><path fill="#cc4729" d="M282.792 173.966a189.67 189.67 0 0 1-22.306-16.439 31.173 31.173 0 0 0 12.15-3.956 3.578 3.578 0 0 0 1.679-4.22 3.5 3.5 0 0 0-5.075-1.9 23.682 23.682 0 0 1-2.89 1.425 18.7 18.7 0 0 1-19.868-3.837c-6.844-6.444-11.325-11.151-11.43-11.262a3.5 3.5 0 0 0-5.082 4.813c.491.519 6.236 6.555 14.625 14.29a18.632 18.632 0 0 1 6.005 12.02 33.121 33.121 0 0 1-1.291 12.641 3.5 3.5 0 0 0 3.329 4.584 3.5 3.5 0 0 0 3.343-2.465 40.022 40.022 0 0 0 1.582-15.42 191.045 191.045 0 0 0 21.749 15.809 3.5 3.5 0 0 0 4.914-1.357 3.621 3.621 0 0 0-1.434-4.726z" opacity="1" data-original="#cc4729"></path><path fill="#dadaea" d="M175.133 170.985 278.121 68a3.5 3.5 0 0 0-4.95-4.951L170.183 166.035 67.194 63.046A3.5 3.5 0 1 0 62.244 68l102.988 102.985L62.244 273.973a3.5 3.5 0 0 0 4.95 4.95l102.989-102.988 102.988 102.988a3.5 3.5 0 0 0 4.95-4.95z" opacity="1" data-original="#dadaea"></path><g fill="#ffb655"><path d="M49.477 120.122c-3.507-2.079-6.7-1.162-10.071 1.223-3.4 2.341-5.361 5.025-4.617 9.033a11.725 11.725 0 0 0 3.675 6.3l15.18 13.878 8.279-5.781-7.8-19.032a11.727 11.727 0 0 0-4.646-5.621zM89.1 176.863c.744 4.008-1.218 6.692-4.617 9.033-3.368 2.385-6.563 3.3-10.07 1.223a11.727 11.727 0 0 1-4.647-5.619l-7.8-19.032 8.278-5.781 15.181 13.878a11.717 11.717 0 0 1 3.675 6.298z" fill="#ffb655" opacity="1" data-original="#ffb655" class=""></path><path d="M85.689 126.906c.193-4.073-2.115-6.465-5.8-8.323-3.661-1.905-6.951-2.38-10.143.156a11.726 11.726 0 0 0-3.841 6.2l-5.142 19.914 8.987 4.6 13.15-15.808a11.726 11.726 0 0 0 2.789-6.739zM54.142 188.5c-3.192 2.536-6.482 2.061-10.143.156-3.686-1.858-5.994-4.25-5.8-8.323a11.727 11.727 0 0 1 2.786-6.739l13.155-15.81 9.86 3.248-6.017 21.268a11.733 11.733 0 0 1-3.841 6.2z" fill="#ffb655" opacity="1" data-original="#ffb655" class=""></path><path d="M96.938 160.9c3.627-1.862 4.551-5.056 4.325-9.177-.173-4.123-1.4-7.212-5.19-8.716a11.724 11.724 0 0 0-7.288-.241l-19.828 5.465.487 10.085 20.263 3.527a11.73 11.73 0 0 0 7.231-.943z" fill="#ffb655" opacity="1" data-original="#ffb655" class=""></path><circle cx="61.943" cy="153.62" r="16.974" fill="#ffb655" opacity="1" data-original="#ffb655" class=""></circle><path d="M27.814 164.238c-3.79-1.5-5.017-4.593-5.19-8.717-.226-4.12.7-7.314 4.325-9.176a11.721 11.721 0 0 1 7.23-.943l20.263 3.527.488 10.085-19.83 5.465a11.724 11.724 0 0 1-7.286-.241z" fill="#ffb655" opacity="1" data-original="#ffb655" class=""></path></g><circle cx="61.943" cy="153.62" r="11.263" fill="#ffffff" opacity="1" data-original="#ffffff"></circle></g></svg>