<svg xmlns="http://www.w3.org/2000/svg" version="1.1" xmlns:xlink="http://www.w3.org/1999/xlink" width="512" height="512" x="0" y="0" viewBox="0 0 512 512" style="enable-background:new 0 0 512 512" xml:space="preserve"><g><path d="m446.942 160.817-129.819-12.041L265.555 29.03c-3.611-8.385-15.499-8.385-19.109 0l-51.568 119.745-129.82 12.042c-9.091.843-12.764 12.149-5.905 18.175l97.948 86.047-28.665 127.187c-2.007 8.906 7.611 15.894 15.46 11.233l112.103-66.565 112.103 66.565c7.85 4.661 17.467-2.327 15.46-11.233l-28.666-127.187 97.949-86.047c6.861-6.027 3.187-17.332-5.903-18.175z" style="" fill="#ffdc64" data-original="#ffdc64"></path><path d="M123.288 24.908c6.618 9.193 25.298 48.67 35.977 71.677 1.679 3.617-2.859 6.884-5.756 4.144-18.43-17.426-49.943-47.665-56.56-56.857-5.237-7.274-3.585-17.416 3.688-22.651 7.272-5.238 17.414-3.587 22.651 3.687zM388.714 24.908c-6.618 9.193-25.298 48.67-35.977 71.677-1.679 3.617 2.859 6.884 5.756 4.144 18.431-17.426 49.943-47.665 56.56-56.857 5.237-7.274 3.585-17.416-3.688-22.651-7.274-5.238-17.415-3.587-22.651 3.687zM493.293 294.471c-10.769-3.512-54.056-9.314-79.219-12.498-3.956-.501-5.69 4.815-2.199 6.743 22.202 12.264 60.586 33.099 71.355 36.611 8.521 2.779 17.682-1.876 20.46-10.397 2.778-8.52-1.877-17.68-10.397-20.459zM18.708 294.471c10.769-3.512 54.056-9.314 79.219-12.498 3.956-.501 5.69 4.815 2.199 6.743-22.202 12.264-60.586 33.099-71.355 36.611-8.521 2.779-17.682-1.876-20.46-10.397-2.78-8.52 1.876-17.68 10.397-20.459zM240.27 477.619c0-11.327 7.907-54.28 12.682-79.19.751-3.916 6.342-3.916 7.093 0 4.776 24.91 12.682 67.863 12.682 79.19 0 8.963-7.266 16.229-16.229 16.229-8.963-.001-16.228-7.266-16.228-16.229z" style="" fill="#fff082" data-original="#fff082"></path><path d="M284.306 72.575 265.555 29.03c-3.611-8.385-15.499-8.385-19.109 0l-51.568 119.745-129.82 12.042c-9.091.843-12.764 12.149-5.905 18.175l97.948 86.047-28.665 127.187c-2.007 8.906 7.611 15.894 15.46 11.233l14.921-8.86c24.46-158.338 93.225-274.569 125.489-322.024z" style="" fill="#ffc850" data-original="#ffc850"></path><path d="m363.194 267.733 94.601-83.108c5.461-4.796 7.458-12.07 5.213-18.981-2.246-6.913-8.138-11.624-15.375-12.294l-125.386-11.63-23.477-54.521a7.499 7.499 0 0 0-9.855-3.922 7.5 7.5 0 0 0-3.922 9.854l25.24 58.61a7.5 7.5 0 0 0 6.196 4.501l129.819 12.041c1.656.154 2.273 1.315 2.493 1.994.221.679.404 1.981-.846 3.078l-97.948 86.048a7.498 7.498 0 0 0-2.366 7.284l28.665 127.185c.365 1.623-.549 2.568-1.126 2.988-.578.419-1.759.997-3.188.146l-112.105-66.562a7.507 7.507 0 0 0-7.658 0l-112.102 66.564c-1.428.851-2.61.272-3.189-.147-.577-.419-1.491-1.365-1.126-2.986l14.798-65.653a7.5 7.5 0 0 0-14.633-3.299l-14.798 65.654c-1.598 7.09 1.063 14.148 6.942 18.419 3.172 2.305 6.824 3.468 10.497 3.467 3.137 0 6.289-.848 9.167-2.557l108.273-64.291 108.275 64.291c6.25 3.71 13.784 3.361 19.662-.91 5.88-4.271 8.54-11.33 6.942-18.42l-27.683-122.843z" fill="#000000" opacity="1" data-original="#000000"></path><path d="m54.203 184.625 94.602 83.108-6.148 27.284a7.5 7.5 0 0 0 5.668 8.965 7.526 7.526 0 0 0 1.655.186 7.503 7.503 0 0 0 7.31-5.854l7.128-31.628a7.498 7.498 0 0 0-2.366-7.283l-97.948-86.048c-1.249-1.097-1.065-2.399-.846-3.078.221-.679.838-1.84 2.493-1.994l129.818-12.041a7.5 7.5 0 0 0 6.196-4.501l51.569-119.744c.657-1.527 1.953-1.755 2.666-1.755.714 0 2.01.228 2.667 1.755l14.006 32.523a7.5 7.5 0 1 0 13.777-5.933l-14.006-32.523c-2.875-6.675-9.176-10.822-16.444-10.822-7.268 0-13.568 4.146-16.443 10.822L189.75 141.72 64.365 153.35c-7.237.671-13.128 5.382-15.374 12.294-2.245 6.911-.247 14.184 5.212 18.981z" fill="#000000" opacity="1" data-original="#000000"></path><path d="M161.899 118.9a7.49 7.49 0 0 0 5.111 2.009 7.5 7.5 0 0 0 6.826-10.604c-3.536-7.78-34.824-76.394-44.462-89.781a23.575 23.575 0 0 0-15.443-9.557c-6.262-1.02-12.534.459-17.678 4.164-10.618 7.645-13.037 22.501-5.394 33.12 9.639 13.388 64.784 64.828 71.04 70.649zm-56.882-91.594a8.661 8.661 0 0 1 6.503-1.532 8.673 8.673 0 0 1 5.681 3.515c4.536 6.299 16.055 29.718 26.48 51.719-17.558-16.868-36.112-35.22-40.647-41.519-2.812-3.906-1.922-9.371 1.983-12.183zM340.612 119.496a7.483 7.483 0 0 0 4.38 1.414 7.489 7.489 0 0 0 5.111-2.009c6.256-5.821 61.399-57.26 71.038-70.647 7.644-10.618 5.225-25.475-5.394-33.12-5.146-3.704-11.426-5.183-17.678-4.163a23.575 23.575 0 0 0-15.443 9.556c-9.638 13.387-40.926 82.001-44.462 89.781a7.5 7.5 0 0 0 2.448 9.188zM394.8 29.29a8.668 8.668 0 0 1 5.681-3.516 8.667 8.667 0 0 1 6.503 1.531c3.905 2.813 4.795 8.278 1.983 12.184-4.535 6.299-23.091 24.652-40.647 41.52 10.426-22.001 21.945-45.419 26.48-51.719zM509.414 299.151a23.572 23.572 0 0 0-13.797-11.811v-.001c-15.682-5.113-90.56-14.075-99.045-15.08a7.512 7.512 0 0 0-8.012 5.123 7.5 7.5 0 0 0 3.451 8.861c7.447 4.191 73.21 41.1 88.892 46.213a23.782 23.782 0 0 0 7.383 1.182c3.685 0 7.344-.868 10.724-2.586a23.568 23.568 0 0 0 11.81-13.796 23.576 23.576 0 0 0-1.406-18.105zm-12.855 13.454a8.67 8.67 0 0 1-4.343 5.075 8.674 8.674 0 0 1-6.661.516c-7.379-2.406-30.502-14.508-51.907-26.108 24.129 3.249 49.94 7.106 57.319 9.514a8.671 8.671 0 0 1 5.075 4.344 8.663 8.663 0 0 1 .517 6.659zM123.44 277.383a7.496 7.496 0 0 0-8.012-5.123c-8.486 1.005-83.364 9.967-99.045 15.08v.001a23.568 23.568 0 0 0-13.797 11.811 23.571 23.571 0 0 0-1.405 18.105 23.571 23.571 0 0 0 11.811 13.797 23.616 23.616 0 0 0 10.724 2.586 23.8 23.8 0 0 0 7.382-1.181c15.683-5.114 81.445-42.022 88.893-46.214a7.503 7.503 0 0 0 3.449-8.862zm-96.995 40.814a8.683 8.683 0 0 1-6.66-.517 8.676 8.676 0 0 1-4.344-5.076 8.67 8.67 0 0 1 .517-6.66 8.674 8.674 0 0 1 5.075-4.344c7.38-2.407 33.19-6.265 57.319-9.514-21.403 11.603-44.527 23.704-51.907 26.111zM256.497 372.751a7.5 7.5 0 0 0-7.354 6.029c-1.676 8.38-16.374 82.345-16.374 98.839 0 13.084 10.645 23.728 23.728 23.728 13.084 0 23.728-10.645 23.728-23.728 0-16.495-14.698-90.46-16.374-98.839a7.498 7.498 0 0 0-7.354-6.029zm0 113.596c-4.813 0-8.729-3.916-8.729-8.729 0-7.762 4.336-33.498 8.729-57.443 4.393 23.945 8.729 49.682 8.729 57.443 0 4.813-3.916 8.729-8.729 8.729z" fill="#000000" opacity="1" data-original="#000000"></path></g></svg>