<svg xmlns="http://www.w3.org/2000/svg" version="1.1" xmlns:xlink="http://www.w3.org/1999/xlink" width="512" height="512" x="0" y="0" viewBox="0 0 96 96" style="enable-background:new 0 0 512 512" xml:space="preserve" class=""><g><g data-name="Traveling around the world (eart &amp; airplane)"><path fill="#58acff" d="M75 34.84c7.76 21.53-8.83 44.24-31.74 43.25A32.32 32.32 0 1 1 75 34.84z" opacity="1" data-original="#58acff" class=""></path><path fill="#99d9ff" d="M71.5 49.83c-3.26 21.39-28.91 30.69-45.07 16.24-15.38-13.77-10.31-38.93 8.93-45.86 19.07-6.9 39.23 9.07 36.14 29.62z" opacity="1" data-original="#99d9ff" class=""></path><path fill="#3f5cdc" d="M53.81 71.4a27.21 27.21 0 0 1-36.32-23.2A2.54 2.54 0 0 0 14 46.1a2.58 2.58 0 0 0-1.6 2.6c2.47 27.37 35.76 39.19 55 20a2.46 2.46 0 0 0-.1-3.59l-.18-.11a2.45 2.45 0 0 0-3.37.13 27.18 27.18 0 0 1-9.94 6.27z" opacity="1" data-original="#3f5cdc"></path><path fill="#c6f7ff" d="M42.65 13.54a2.55 2.55 0 0 0 .35 5.09 27.23 27.23 0 0 1 25.92 15 2.55 2.55 0 0 0 4.58-2.23 32.25 32.25 0 0 0-30.85-17.86z" opacity="1" data-original="#c6f7ff"></path><path fill="#302d3d" d="M44.62 79.12c-24.34 0-40.62-25.36-30.18-47.5a33.32 33.32 0 1 1 30.18 47.5zm0-64.64a31.32 31.32 0 1 0 30.84 26 31.28 31.28 0 0 0-30.86-26z" opacity="1" data-original="#302d3d" class=""></path><path fill="#2a9677" d="M67.44 27.13a4.19 4.19 0 0 1-.21 3.24l-.09.2a27.26 27.26 0 0 0-17.26-11.46c0-.22-.06.48.75-5.06a32.23 32.23 0 0 1 14.7 7zM76.55 50.59l-5.49 1.49a26.26 26.26 0 0 0 .65-8.37 4.14 4.14 0 0 0 2.12-1l2.59-2.43a31.79 31.79 0 0 1 .13 10.31z" opacity="1" data-original="#2a9677"></path><path fill="#70e69f" d="m71.06 52.09-3.06.84a4.11 4.11 0 0 1-5-2.53l-2.71-7.23a6.64 6.64 0 0 0-2.79-3.37l-5.2-3.06a3 3 0 0 0-3.73.6l-2.86 3.26a2 2 0 0 0-.44 1.88l.21.73A2 2 0 0 1 41.87 45l-2.71-3.74a7.54 7.54 0 0 1-1.43-5.07l.65-8.29a4.64 4.64 0 0 1 3.41-4.1l5-1.38a4.34 4.34 0 0 0 3.09-3.26 27.26 27.26 0 0 1 17.26 11.41l-3.28 6.57A4.12 4.12 0 0 0 66.75 43c3.68.72 4 .87 5 .7a26.52 26.52 0 0 1-.69 8.39z" opacity="1" data-original="#70e69f" class=""></path><path fill="#43d277" d="M43.4 29.25a1 1 0 0 1 .69-.84l4.06-1.12c3.22-.87 3.51-2.46 4.55-2.05a22.26 22.26 0 0 1 8 5.43 1 1 0 0 1 .15 1.07c-.31.61-.78 1.56-1.13 2.27a1 1 0 0 1-1.33.39l-3.5-2.06A8.07 8.07 0 0 0 44.73 34a.94.94 0 0 1-1.65-.7z" opacity="1" data-original="#43d277" class=""></path><path fill="#302d3d" d="M66.88 54.08a5.09 5.09 0 0 1-4.77-3.32l-2.72-7.24A5.66 5.66 0 0 0 57 40.66l-5.2-3.06a2 2 0 0 0-2.48.4l-2.86 3.25c-.45.52-.19 1 0 1.69a3 3 0 0 1-5.38 2.59l-2.73-3.73a8.61 8.61 0 0 1-1.62-5.74l.66-8.28a5.65 5.65 0 0 1 4.13-5l5-1.38A3.33 3.33 0 0 0 49 18.67l.69-4.76a1 1 0 0 1 1.17-.84A33.2 33.2 0 0 1 66 20.25c.31.26.12-.09 2.41 6.55a5.22 5.22 0 0 1-.25 4l-3.37 6.78A3.11 3.11 0 0 0 66.94 42l3.51.68a3.1 3.1 0 0 0 2.7-.77l2.59-2.42a1 1 0 0 1 1.67.56 32.8 32.8 0 0 1 .13 10.65 1 1 0 0 1-.72.82c-9.48 2.62-9.01 2.56-9.94 2.56zm-14.07-18.2L58 38.94a7.63 7.63 0 0 1 3.27 3.88L64 50.05A3.09 3.09 0 0 0 67.71 52l8-2.17a30.86 30.86 0 0 0 0-7.5l-1.2 1.11a5.1 5.1 0 0 1-4.44 1.28L66.56 44A5.12 5.12 0 0 1 63 36.7l3.38-6.78a3.23 3.23 0 0 0 .15-2.46l-2-5.85a31.16 31.16 0 0 0-13-6.36l-.6 3.75a5.34 5.34 0 0 1-3.87 4.37l-5 1.38a3.65 3.65 0 0 0-2.67 3.22l-.65 8.29A6.58 6.58 0 0 0 40 40.62l2.72 3.74a1 1 0 0 0 1.83-.89l-.2-.73a3 3 0 0 1 .65-2.81l2.86-3.25a4 4 0 0 1 4.95-.8z" opacity="1" data-original="#302d3d" class=""></path><path fill="#43d277" d="m50.88 64.42-.15 3.41a3.79 3.79 0 0 1-2.5 3.39l-2.86 1a3.29 3.29 0 0 0-2.19 3.2l.07 2.64A32.36 32.36 0 0 1 23 69.87c.37-3.75.71-5-.17-6.83l-3.25-6.76a5.25 5.25 0 0 1-.14-4.2L21.13 48a1.92 1.92 0 0 1 3-.78c3.95 3.21 4.5 3.48 5.14 4.85l3.18 6.8a4.4 4.4 0 0 0 4.07 2.54l11.18-.22a3.13 3.13 0 0 1 3.18 3.23z" opacity="1" data-original="#43d277" class=""></path><path fill="#2a9677" d="m43.18 75.45.07 2.64A32.36 32.36 0 0 1 23 69.87l.38-3.78a5.83 5.83 0 0 0-.52-3.09l-1.41-2.95A27.19 27.19 0 0 0 44.16 73a3.25 3.25 0 0 0-.98 2.45z" opacity="1" data-original="#2a9677"></path><path fill="#70e69f" d="m50.89 64.42-.16 3.4a3.8 3.8 0 0 1-2.5 3.4c-2.82 1-3.38 1.1-4.07 1.79a27.28 27.28 0 0 1-17.73-6.94 27.59 27.59 0 0 1-5-6l-1.82-3.78a5.27 5.27 0 0 1-.14-4.21L21.13 48a1.92 1.92 0 0 1 3-.78c3.75 3 4.48 3.43 5.14 4.85l3.18 6.81a4.43 4.43 0 0 0 4.07 2.53l11.18-.22a3.14 3.14 0 0 1 3.19 3.23z" opacity="1" data-original="#70e69f" class=""></path><path fill="#43d277" d="M43.61 69.83a1.77 1.77 0 0 1-.94.19 24.46 24.46 0 0 1-14.29-6.13 23.19 23.19 0 0 1-4.44-5.34L22.25 55a2.32 2.32 0 0 1-.07-1.86l.22-.55a1.84 1.84 0 0 1 2.87-.74c1.49 1.21.72.07 4.53 8.19a7.37 7.37 0 0 0 6.64 4.22C48.67 64 47.8 64 47.91 64.13s.07-.14-.1 3.56a.88.88 0 0 1-.57.78 36.2 36.2 0 0 0-3.63 1.36z" opacity="1" data-original="#43d277" class=""></path><path fill="#302d3d" d="M43.2 79.09a33.44 33.44 0 0 1-20.84-8.47 1 1 0 0 1-.33-.85c.38-3.8.67-4.77-.07-6.3l-3.25-6.75a6.28 6.28 0 0 1-.17-5l1.66-4.13a2.92 2.92 0 0 1 4.55-1.18c3.91 3.17 4.65 3.56 5.41 5.2l3.19 6.8a3.33 3.33 0 0 0 3.14 2l11.18-.22a4.13 4.13 0 0 1 4.21 4.33l-.15 3.4a4.79 4.79 0 0 1-3.16 4.29l-2.87 1a2.3 2.3 0 0 0-1.52 2.23l.07 2.65a1 1 0 0 1-1.05 1zm-19.13-9.63A31.44 31.44 0 0 0 42.22 77v-1.55A4.29 4.29 0 0 1 45 71.31l2.86-1a2.8 2.8 0 0 0 1.84-2.5l.16-3.4a2.15 2.15 0 0 0-2.18-2.24l-11.18.22a5.41 5.41 0 0 1-5-3.11c-3.44-7.34-3.35-7.48-4.35-8.29l-3.7-3a.92.92 0 0 0-1.44.37l-1.61 4.1a4.21 4.21 0 0 0 .11 3.39c4.54 9.42 4.17 7.46 3.56 13.61zM44.59 88.45a1 1 0 0 1 0-2 40.16 40.16 0 0 0 4.9-.3 1 1 0 0 1 .24 2 43.82 43.82 0 0 1-5.14.3zm-5-.29a41 41 0 0 1-5.19-.93 1 1 0 0 1-.75-1.23 1 1 0 0 1 1.21-.73 41.4 41.4 0 0 0 4.83.87 1 1 0 0 1-.12 2zm15-.92a1 1 0 0 1-.23-2A40.25 40.25 0 0 0 59 83.81a1 1 0 0 1 1.29.58 1 1 0 0 1-.58 1.29 38.08 38.08 0 0 1-5.16 1.56zm-24.77-1.48a31.46 31.46 0 0 1-5.05-2.17 1 1 0 0 1 .93-1.77 42.38 42.38 0 0 0 4.47 2 1 1 0 0 1-.35 1.94zm34.12-2.08a1 1 0 0 1-.47-1.89 40.62 40.62 0 0 0 4.19-2.54 1 1 0 0 1 1.4.25 1 1 0 0 1-.26 1.39 41.9 41.9 0 0 1-4.4 2.67 1 1 0 0 1-.46.12zm-43-2.58a1.06 1.06 0 0 1-.57-.17 42.92 42.92 0 0 1-4.05-3.18 1 1 0 0 1-.09-1.41 1 1 0 0 1 1.41-.09 39.11 39.11 0 0 0 3.87 3 1 1 0 0 1-.58 1.85zM72.19 78a1 1 0 0 1-.67-1.74A40.58 40.58 0 0 0 75 72.75a1 1 0 1 1 1.5 1.32 43.11 43.11 0 0 1-3.64 3.64 1 1 0 0 1-.67.29zm-58.78-3.55a1 1 0 0 1-.75-.34 44.62 44.62 0 0 1-3.18-4 1 1 0 0 1 1.65-1.13 39.84 39.84 0 0 0 3 3.86 1 1 0 0 1-.72 1.61zm65.43-4a1 1 0 0 1-.84-1.57 40.44 40.44 0 0 0 2.54-4.19 1 1 0 1 1 1.77.92A42.36 42.36 0 0 1 79.67 70a1 1 0 0 1-.83.45zM7.7 66.2a1 1 0 0 1-.89-.54A42 42 0 0 1 4.69 61a1 1 0 1 1 1.87-.71 40.76 40.76 0 0 0 2 4.47 1 1 0 0 1-.86 1.44zm75.81-4.64a1 1 0 0 1-.93-1.35A39.06 39.06 0 0 0 84 55.52a1 1 0 0 1 1.21-.73A1 1 0 0 1 86 56a41.07 41.07 0 0 1-1.52 4.92 1 1 0 0 1-.97.64zM4.12 56.82a1 1 0 0 1-1-.76 43.85 43.85 0 0 1-.9-5.06 1 1 0 0 1 2-.24 39.82 39.82 0 0 0 .89 4.83 1 1 0 0 1-.99 1.23zm81.79-5a1 1 0 0 1-1-1.12 41.22 41.22 0 0 0 .29-4.9 1 1 0 1 1 2 0 43.43 43.43 0 0 1-.31 5.15 1 1 0 0 1-.98.86zm-83-5a1 1 0 0 1-1-1c1.34 0 1.33 0 0 0a43.27 43.27 0 0 1 .3-5.11 1 1 0 0 1 2 .24 41 41 0 0 0-.29 4.84 1 1 0 0 1-1.01 1.03zm83-5.14a1 1 0 0 1-1-.88A40.91 40.91 0 0 0 84 36a1 1 0 1 1 2-.51 43.11 43.11 0 0 1 .94 5.07 1 1 0 0 1-1.04 1.12zM4.1 36.89a1 1 0 0 1-1-1.24 42.42 42.42 0 0 1 1.53-4.92 1 1 0 0 1 1.29-.59 1 1 0 0 1 .58 1.29 39.06 39.06 0 0 0-1.45 4.69 1 1 0 0 1-.95.77zm79.37-4.95a1 1 0 0 1-.93-.64 40.82 40.82 0 0 0-2-4.47 1 1 0 0 1 1.76-.94 43 43 0 0 1 2.14 4.69 1 1 0 0 1-.97 1.36zM7.64 27.49A1 1 0 0 1 6.76 26a40.32 40.32 0 0 1 2.66-4.41 1 1 0 1 1 1.64 1.13c-2.71 3.97-2.38 4.77-3.42 4.77zm71.14-4.42c-1 0-.7-.74-3.85-4.29a1 1 0 0 1 .07-1.42 1 1 0 0 1 1.41.09 41.34 41.34 0 0 1 3.19 4.05 1 1 0 0 1-.82 1.57zm-65.44-3.85a1 1 0 0 1-.75-1.66 43 43 0 0 1 3.63-3.64 1 1 0 0 1 1.42.08 1 1 0 0 1-.09 1.41c-3.55 3.14-3.34 3.81-4.21 3.81zm58.77-3.66c-.8 0-.78-.69-4.53-3.27a1 1 0 1 1 1.13-1.64 41.27 41.27 0 0 1 4.06 3.16 1 1 0 0 1-.66 1.75zm-51.27-3a1 1 0 0 1-.57-1.82 41 41 0 0 1 4.4-2.68 1 1 0 1 1 .93 1.77c-3.6 1.89-4.09 2.73-4.76 2.73zm43-2.68a1 1 0 0 1-.46-.12 40.84 40.84 0 0 0-4.48-2 1 1 0 0 1 .71-1.87A43 43 0 0 1 64.3 8a1 1 0 0 1-.47 1.88zm-34.12-2a1 1 0 0 1-.35-1.93 42.31 42.31 0 0 1 4.9-1.55 1 1 0 0 1 .48 1.94c-3.53.87-4.53 1.53-5.04 1.53zm24.72-1.55c-.27 0-2.08-.54-5.06-.9a1 1 0 0 1-.88-1.11 1 1 0 0 1 1.11-.87 43.41 43.41 0 0 1 5.07.91 1 1 0 0 1-.24 1.97zm-15-.87a1 1 0 0 1-.12-2 43.46 43.46 0 0 1 5.14-.32 1 1 0 0 1 0 2 43.81 43.81 0 0 0-5.01.32z" opacity="1" data-original="#302d3d" class=""></path><path fill="#fc3349" d="M58 10.24c0 5.1-9.24 16.81-9.24 16.81s-9.23-11.71-9.23-16.81a9.24 9.24 0 1 1 18.47 0z" opacity="1" data-original="#fc3349"></path><path fill="#302d3d" d="M48 27.67c-1-1.23-9.45-12.14-9.45-17.43a10.24 10.24 0 1 1 20.47 0c0 5.29-8.48 16.2-9.45 17.43a1 1 0 0 1-1.57 0zM48.76 2a8.24 8.24 0 0 0-8.23 8.24c0 3.54 5.37 11.38 8.23 15.17C51.63 21.62 57 13.78 57 10.24A8.24 8.24 0 0 0 48.76 2z" opacity="1" data-original="#302d3d" class=""></path><circle cx="48.76" cy="10.24" r="4.18" fill="#ffffff" opacity="1" data-original="#ffffff"></circle><path fill="#302d3d" d="M48.76 15.41a5.18 5.18 0 1 1 5.18-5.17 5.18 5.18 0 0 1-5.18 5.17zm0-8.35a3.18 3.18 0 1 0 3.18 3.18 3.18 3.18 0 0 0-3.18-3.18z" opacity="1" data-original="#302d3d" class=""></path><rect width="4.86" height="7.25" x="82.26" y="73.12" fill="#39437d" rx="1.07" transform="rotate(-152.25 84.661 76.752)" opacity="1" data-original="#39437d"></rect><path fill="#302d3d" d="M84.72 81.72c-.66 0-.8-.15-3.42-1.54a2 2 0 0 1-.85-2.74l2.42-4.59a2 2 0 0 1 2.75-.85l2.46 1.3a2 2 0 0 1 .85 2.75l-2.41 4.58a2 2 0 0 1-1.8 1.09zm0-8c-2.64 4.94-2.48 4.54-2.44 4.64l2.46 1.3 2.46-4.59z" opacity="1" data-original="#302d3d" class=""></path><path fill="#39437d" d="M89.54 79.24 88 82.15a1 1 0 0 0 .41 1.32L91 84.82a1 1 0 0 0 1.32-.41l1.54-2.91a1 1 0 0 0-.41-1.32l-2.57-1.35a1 1 0 0 0-1.34.41z" opacity="1" data-original="#39437d"></path><path fill="#302d3d" d="M91.44 85.94c-.59 0-.63-.08-3.51-1.6a2 2 0 0 1-.82-2.64l1.56-3a2 2 0 0 1 2.64-.81l2.6 1.37a2 2 0 0 1 .82 2.74l-1.55 3a2 2 0 0 1-1.74.94zm-2.54-3.35L91.47 84 93 81l-2.58-1.31z" opacity="1" data-original="#302d3d" class=""></path><path fill="#2a93ff" d="m78.19 69.66-4.32 7.8c.53.3 14.52 9.68 16.64 10.85a.93.93 0 0 0 1-.47l.66-1.19a1 1 0 0 0-.17-1.08C77.89 69.31 78.26 69.76 78.19 69.66z" opacity="1" data-original="#2a93ff"></path><path fill="#2075d2" d="m88.07 82.09-1.68 3a.54.54 0 0 0 .18.71c3.75 2.46 3.64 2.44 3.94 2.48a.92.92 0 0 0 .73-.19c.21-.14.21-.21.91-1.47a1 1 0 0 0-.15-1.05L88.92 82a.52.52 0 0 0-.85.09z" opacity="1" data-original="#2075d2"></path><path fill="#205caa" d="m76.67 72.4-2.8 5.06c.87.48 16.15 10.79 16.64 10.85C76.54 72.25 76.75 72.52 76.67 72.4z" opacity="1" data-original="#205caa"></path><path fill="#fcbf49" d="m89.3 82.43-2.1 3.8 2.94 1.94a.94.94 0 0 0 1.35-.33l.65-1.18a1 1 0 0 0-.14-1.09z" opacity="1" data-original="#fcbf49"></path><path fill="#f1ffff" d="m84.45 76.85.88 1a.79.79 0 0 1 .1.9l-.07.13a.8.8 0 0 1-1.3.14l-.88-1a.8.8 0 0 1-.1-.91l.07-.12a.8.8 0 0 1 1.3-.14z" opacity="1" data-original="#f1ffff"></path><rect width="4.86" height="7.25" x="66.33" y="64.81" fill="#39437d" rx="1.07" transform="rotate(28.95 68.775 68.457)" opacity="1" data-original="#39437d"></rect><path fill="#302d3d" d="M68.72 73.41c-.75 0-1.08-.31-3.43-1.61a2 2 0 0 1-.79-2.8l2.5-4.49a2 2 0 0 1 2.76-.8l2.44 1.35a2 2 0 0 1 .8 2.77l-2.5 4.53a2 2 0 0 1-1.78 1.05zm.08-8L66.25 70l2.46 1.39 2.51-4.53z" opacity="1" data-original="#302d3d" class=""></path><rect width="5.24" height="4.86" x="58.47" y="63.58" fill="#39437d" rx=".98" transform="rotate(-61.05 61.07 66.014)" opacity="1" data-original="#39437d"></rect><path fill="#302d3d" d="M61.57 70.13c-.66 0-.76-.13-3.52-1.67a1.94 1.94 0 0 1-.76-2.65l1.61-2.92a1.94 1.94 0 0 1 2.65-.76l2.58 1.42a2 2 0 0 1 .77 2.66l-1.62 2.92a1.94 1.94 0 0 1-1.71 1zm-1-6.26L59 66.78l2.52 1.34 1.6-2.88z" opacity="1" data-original="#302d3d" class=""></path><path fill="#2a93ff" d="m78.21 69.67-4.32 7.8c-.53-.29-15.91-7.16-18-8.34a1 1 0 0 1-.11-1.08l.65-1.18a1 1 0 0 1 1-.48z" opacity="1" data-original="#2a93ff"></path><path fill="#2075d2" d="m62.43 67.9-1.68 3a.54.54 0 0 1-.69.22c-4.09-1.86-4-1.78-4.2-2a.92.92 0 0 1-.22-.72c0-.25.07-.28.76-1.54a1 1 0 0 1 1-.48l4.68.74a.52.52 0 0 1 .35.78z" opacity="1" data-original="#2075d2"></path><path fill="#205caa" d="m76.69 72.41-2.8 5.06c-.87-.48-17.72-8-18-8.33 21.27 3.35 20.68 3.27 20.8 3.27z" opacity="1" data-original="#205caa"></path><path fill="#fcbf49" d="m61.48 67-2.1 3.8-3.21-1.47a.94.94 0 0 1-.43-1.32l.65-1.18a1 1 0 0 1 1-.48z" opacity="1" data-original="#fcbf49"></path><path fill="#a7e3ff" d="M64.25 68.05a.85.85 0 0 0 .62 1.26l5 .79a.89.89 0 0 0 .89-.44.85.85 0 0 0-.62-1.26l-5-.79a.86.86 0 0 0-.89.44z" opacity="1" data-original="#a7e3ff"></path><g fill="#302d3d"><path d="M73.89 78.47c-.32 0 .92.51-18.13-8.18a2 2 0 0 1-.89-2.72l.65-1.19a2 2 0 0 1 2-1l20.8 3.27a1 1 0 0 1 .76 1.48L74.76 78a1 1 0 0 1-.87.47zm-17.26-10 16.83 7.67 3.18-5.74-19.42-3.02z" fill="#302d3d" opacity="1" data-original="#302d3d" class=""></path><path d="M59.38 71.84c-.29 0-.05.07-3.62-1.55a2 2 0 0 1-.9-2.72l.66-1.18a2 2 0 0 1 2-1l4.11.65a1 1 0 0 1 .72 1.47l-2.11 3.8a1 1 0 0 1-.86.53zm-2.16-4.46-.61 1.16 2.34 1 1-1.76zM90.66 89.33c-.83 0 .35.62-17.32-11A1 1 0 0 1 73 77l4.32-7.81a1 1 0 0 1 1.62-.19c1.42 1.6-5.1-5.85 13.85 15.92a2 2 0 0 1 .21 2.22l-.65 1.18a2 2 0 0 1-1.69 1.01zM75.19 77.14l15.49 10.2.57-1.14-12.88-14.81z" fill="#302d3d" opacity="1" data-original="#302d3d" class=""></path></g><path fill="#2a93ff" d="m77 94.72-.59 1a.67.67 0 0 1-.93.27L57.3 86a.7.7 0 0 1-.27-.94l.58-1a.69.69 0 0 1 .72-.35l7.54 1.26 5.92 3.27c1.62 1.82.57.64 5.07 5.73a.7.7 0 0 1 .14.75z" opacity="1" data-original="#2a93ff"></path><path fill="#302d3d" d="M75.76 97.13c-.62 0 .88.73-19-10.24a1.7 1.7 0 0 1-.66-2.3l.59-1.06a1.68 1.68 0 0 1 1.75-.84c8.15 1.35 7.65 1.24 7.87 1.36 6.46 3.58 6 3.3 6.18 3.49l5.07 5.72a1.71 1.71 0 0 1 .21 1.95c-.52 1.03-.83 1.92-2.01 1.92zM58.05 85.29 75.64 95l.33-.59L71.16 89l-5.62-3.11-7.16-1.2z" opacity="1" data-original="#302d3d" class=""></path><path fill="#fcbf49" d="m77 94.72-.59 1a.67.67 0 0 1-.93.27l-2.06-1.13 1.68-3 1.81 2.05a.7.7 0 0 1 .09.81z" opacity="1" data-original="#fcbf49"></path><path fill="#302d3d" d="M75.76 97.13c-.62 0-.89-.25-2.87-1.35a1 1 0 0 1-.39-1.36l1.67-3a1 1 0 0 1 1.63-.18l1.81 2a1.7 1.7 0 0 1 .21 1.94l-.58 1.06a1.71 1.71 0 0 1-1.48.89zm-1-2.61.91.5.33-.59-.73-.83z" opacity="1" data-original="#302d3d" class=""></path><path fill="#fcbf49" d="m57.61 84-.58 1a.7.7 0 0 0 .27.94l2.05 1.14 1.68-3-2.7-.45a.7.7 0 0 0-.72.37z" opacity="1" data-original="#fcbf49"></path><path fill="#302d3d" d="M59.35 88.15c-.37 0-.37-.07-2.54-1.27a1.69 1.69 0 0 1-.66-2.29l.59-1.06a1.7 1.7 0 0 1 1.75-.85l2.7.45a1 1 0 0 1 .71 1.47l-1.67 3a1 1 0 0 1-.88.55zm-1.3-2.86.91.5.51-.92-1.09-.18z" opacity="1" data-original="#302d3d" class=""></path><path fill="#cee7ff" d="M82.26 59a12.3 12.3 0 0 0-4.57 4.57l-12 21.77a5 5 0 0 0-.69 2.71l.14 2.19a1.69 1.69 0 0 0 2.49 1.38c1.77-1 3-1.42 3.9-3l12-21.77A11.19 11.19 0 0 0 85 61.9l.06-1.35a1.79 1.79 0 0 0-2.8-1.55z" opacity="1" data-original="#cee7ff"></path><path fill="#cee7ff" d="m83.61 66.84-12 21.78c-.87 1.58-2.09 2-3.9 3a1.69 1.69 0 0 1-2.49-1.38c-.14-2.16-.39-3.34.47-4.9l12-21.77A12.36 12.36 0 0 1 82.26 59a1.79 1.79 0 0 1 2.8 1.54 12.3 12.3 0 0 1-1.45 6.3z" opacity="1" data-original="#cee7ff"></path><path fill="#302d3d" d="M66.86 92.82a2.7 2.7 0 0 1-2.69-2.52c-.14-2.24-.41-3.62.6-5.44l12-21.77a13.41 13.41 0 0 1 4.87-4.91 2.79 2.79 0 0 1 4.37 2.42 13.11 13.11 0 0 1-1.57 6.73l-12 21.77a5.94 5.94 0 0 1-2.38 2.36c-2.06 1.11-2.34 1.36-3.2 1.36zm11.71-28.77-12 21.78c-.71 1.28-.48 2.28-.35 4.34a.69.69 0 0 0 1 .57c1.83-1 2.8-1.34 3.5-2.61l12-21.77a11.55 11.55 0 0 0 1.32-5.85.79.79 0 0 0-1.24-.68 12.27 12.27 0 0 0-4.23 4.22z" opacity="1" data-original="#302d3d" class=""></path><path fill="#2a93ff" d="M83.6 66.87a6 6 0 0 1-6-3.21A12.31 12.31 0 0 1 82.26 59a1.79 1.79 0 0 1 2.8 1.55 12.2 12.2 0 0 1-1.46 6.32z" opacity="1" data-original="#2a93ff"></path><path fill="#4dc0ff" d="m84.38 65.13.08-1.9a2.65 2.65 0 0 0-4.15-2.29L78.73 62a13.31 13.31 0 0 1 3.53-3 1.79 1.79 0 0 1 2.8 1.55 13.6 13.6 0 0 1-.68 4.58z" opacity="1" data-original="#4dc0ff"></path><path fill="#302d3d" d="M83 67.9a7 7 0 0 1-6.24-3.78 1 1 0 0 1 .07-1 13.35 13.35 0 0 1 4.87-4.9 2.79 2.79 0 0 1 4.37 2.42c-.11 2.55-.21 4.32-1.59 6.76-.31.5-.87.5-1.48.5zm-4.19-4.24A5 5 0 0 0 83 65.9a11.92 11.92 0 0 0 1.08-5.39.79.79 0 0 0-1.24-.68 11.55 11.55 0 0 0-4.04 3.83z" opacity="1" data-original="#302d3d" class=""></path><path fill="#fcbf49" d="M73.41 85.28c-2.76 5-2 4.34-5.75 6.34a1.69 1.69 0 0 1-2.49-1.38c-.26-4.16-.46-3.21 2.36-8.3a6 6 0 0 1 5.88 3.34z" opacity="1" data-original="#fcbf49"></path><path fill="#f2883a" d="M73.41 85.28c-2.76 5-2 4.34-5.75 6.34a1.69 1.69 0 0 1-2.49-1.38c-.26-4.16-.46-3.21 2.36-8.3a6 6 0 0 1 5.88 3.34z" opacity="1" data-original="#f2883a"></path><path fill="#fcbf49" d="M66.67 90.48c-.27-.15-.2-.23-.35-2.51a3.81 3.81 0 0 1 .45-2l2.15-3.87a4.76 4.76 0 0 1 3.63 2.08c-2.16 3.9-2.34 4.6-3.57 5.27-2.1 1.12-2.06 1.17-2.31 1.03z" opacity="1" data-original="#fcbf49"></path><path fill="#302d3d" d="M64.17 90.3c-.27-4.45-.39-3.67 2.48-8.85a1 1 0 0 1 .8-.51 7 7 0 0 1 6.85 3.9 1 1 0 0 1 0 .93c-2.82 5.1-2.2 4.6-6.14 6.73a2.7 2.7 0 0 1-3.99-2.2zm4-7.38c-2.42 4.36-2.2 3.39-2 7.25a.69.69 0 0 0 1 .57c3.34-1.81 2.65-1.08 5.07-5.46a5 5 0 0 0-4.11-2.36z" opacity="1" data-original="#302d3d" class=""></path><path fill="#fcbf49" d="M64.16 95a1.12 1.12 0 0 1-.46-1.48l2.88-5.75a1.38 1.38 0 0 1 1.91-.6 1.39 1.39 0 0 1 .51 1.95l-3.34 5.5a1.12 1.12 0 0 1-1.5.38z" opacity="1" data-original="#fcbf49"></path><path fill="#302d3d" d="M63.67 95.89a2.12 2.12 0 0 1-.87-2.81l2.88-5.75a2.39 2.39 0 1 1 4.18 2.31l-3.35 5.49a2.11 2.11 0 0 1-2.84.76zm3.8-7.66c-3.19 6.37-3 5.79-2.83 5.91a.12.12 0 0 0 .16 0c3.63-6 3.45-5.57 3.39-5.8a.39.39 0 0 0-.72-.11zM90.66 89.33c-.79 0-.93-.23-4-2.26a1 1 0 0 1-.33-1.32l2.1-3.8a1 1 0 0 1 1.63-.18l2.73 3.14a2 2 0 0 1 .21 2.23l-.65 1.18a2 2 0 0 1-1.69 1.01zm-2.14-3.42 2.17 1.43.58-1.17-1.78-2z" opacity="1" data-original="#302d3d" class=""></path></g></g></svg>