<svg xmlns="http://www.w3.org/2000/svg" version="1.1" xmlns:xlink="http://www.w3.org/1999/xlink" width="512" height="512" x="0" y="0" viewBox="0 0 512 512" style="enable-background:new 0 0 512 512" xml:space="preserve" class=""><g><g fill-rule="evenodd" clip-rule="evenodd"><path fill="#fd4755" d="M442.396 275.297 256.003 461.695 69.604 275.297c-51.473-51.468-51.473-134.92 0-186.388 51.468-51.473 134.92-51.473 186.398 0 51.473-51.473 134.92-51.473 186.393 0 51.469 51.467 51.469 134.92.001 186.388z" opacity="1" data-original="#fd4755"></path><path d="M400.005 131.302c27.996 27.991 27.996 73.551 0 101.542a15.919 15.919 0 0 1-11.311 4.688c-4.091 0-8.192-1.56-11.311-4.688-6.247-6.252-6.247-16.38 0-22.632 15.52-15.52 15.52-40.768 0-56.279-6.247-6.252-6.247-16.38 0-22.632 6.251-6.246 16.379-6.246 22.622.001zm31.119 132.653c45.146-45.151 45.146-118.613 0-163.773-21.88-21.871-50.961-33.91-81.889-33.91-30.932 0-60.013 12.039-81.884 33.91-6.247 6.252-16.379 6.252-22.627 0-22.571-22.566-52.23-33.858-81.884-33.858-29.659 0-59.308 11.292-81.889 33.858-21.871 21.88-33.919 50.962-33.919 81.889 0 30.932 12.049 60.013 33.919 81.884l175.084 175.089zm22.618-186.39c-53.991-54.001-139.708-57.401-197.706-10.221-57.993-47.18-143.715-43.779-197.702 10.221-27.921 27.907-43.3 65.03-43.3 104.506 0 39.481 15.379 76.599 43.3 104.511l186.39 186.4a15.97 15.97 0 0 0 11.311 4.679 15.97 15.97 0 0 0 11.316-4.679l186.39-186.4c57.633-57.627 57.633-151.39.001-209.017z" fill="#000000" opacity="1" data-original="#000000" class=""></path></g></g></svg>