<svg xmlns="http://www.w3.org/2000/svg" version="1.1" xmlns:xlink="http://www.w3.org/1999/xlink" width="512" height="512" x="0" y="0" viewBox="0 0 512 512" style="enable-background:new 0 0 512 512" xml:space="preserve" class=""><g><path fill="#fed402" d="M47.698 373h428.98l6.732-1C498.529 340.174 507 304.578 507 267c0-135.31-109.69-245-245-245S17 131.69 17 267c0 37.578 8.471 73.174 23.591 105z" opacity="1" data-original="#fed402" class=""></path><path fill="#fee45a" d="M47.698 373h428.98l6.721-1a243.267 243.267 0 0 0 19.46-59.983C486.007 301.245 465.983 295 444.5 295c-5.338 0-10.584.393-15.716 1.137C425.509 246.361 384.104 207 333.5 207c-24.235 0-46.358 9.033-63.197 23.909C250.838 212.376 224.498 201 195.5 201c-50.738 0-93.336 34.828-105.205 81.88A81.416 81.416 0 0 0 76 281.597c-21.824 0-41.617 8.647-56.182 22.681A243.1 243.1 0 0 0 40.595 372z" opacity="1" data-original="#fee45a"></path><path fill="#d88a55" d="M117.827 172.425c-.237.021-.47.056-.708.067a16.75 16.75 0 0 1-9.353-2.344 16.736 16.736 0 0 1-3.474 6.466c.232 2.913.329 5.953.294 9.083 9.691 24.708 18.025 66.808 6.279 130.999h19.733c11.982-68.762 2.054-114.315-9.283-141.366a96.682 96.682 0 0 1-3.488-2.905z" opacity="1" data-original="#d88a55"></path><path fill="#c57a44" d="M104.291 176.614c.232 2.913.329 5.953.294 9.083 9.691 24.708 18.025 66.808 6.279 130.999h8.573c14.234-77.784-1.016-123.129-12.437-144.395a16.843 16.843 0 0 1-2.709 4.313z" opacity="1" data-original="#c57a44"></path><path fill="#81b823" d="M103.923 144.31a16.736 16.736 0 0 1 7.119-4.617c5.221-8.539 9.707-19.807 12.508-32.541 4.255-19.339 3.594-37.274-.91-48.292a.887.887 0 0 0-1.417-.312c-8.713 8.109-16.84 24.11-21.096 43.45-4.149 18.859-3.613 36.363.593 47.439a16.84 16.84 0 0 1 3.203-5.127z" opacity="1" data-original="#81b823" class=""></path><path fill="#78a91f" d="M103.923 144.31a16.903 16.903 0 0 1 3.234-2.732c-2.054-10.7-1.706-24.711 1.565-39.579 3.368-15.308 9.166-28.506 15.757-37.373-.517-2.075-1.123-4.016-1.838-5.765a.887.887 0 0 0-1.417-.312c-8.713 8.109-16.84 24.11-21.096 43.45-4.149 18.859-3.613 36.363.593 47.439a16.81 16.81 0 0 1 3.202-5.128z" opacity="1" data-original="#78a91f" class=""></path><path fill="#97d729" d="M172.043 87.877c-11.798 1.575-27.684 9.925-42.342 23.239-11.448 10.398-19.934 21.825-24.397 31.856a16.711 16.711 0 0 1 11.067-4.146 16.75 16.75 0 0 1 10.846 3.973c6.159-3.696 12.489-8.374 18.607-13.931 14.658-13.314 24.493-28.326 27.192-39.918a.884.884 0 0 0-.973-1.073z" opacity="1" data-original="#97d729"></path><path fill="#8bc727" d="M172.043 87.877c-11.798 1.575-27.684 9.925-42.342 23.239-11.448 10.398-19.934 21.825-24.397 31.856a16.711 16.711 0 0 1 11.067-4.146c.798 0 1.576.074 2.345.181 4.556-6.601 10.469-13.376 17.498-19.76 11.237-10.207 23.19-17.482 33.475-21.038 1.531-3.247 2.653-6.36 3.328-9.259a.885.885 0 0 0-.974-1.073z" opacity="1" data-original="#8bc727"></path><path fill="#81b823" d="M196.532 141.196c-10.535-5.54-28.324-7.918-47.982-5.536-8.681 1.052-16.784 2.919-23.896 5.355 4.881 2.763 8.256 7.887 8.527 13.892a16.845 16.845 0 0 1-.643 5.401c5.958.209 12.317-.043 18.896-.84 19.658-2.381 36.365-8.937 45.272-16.832a.886.886 0 0 0-.174-1.44z" opacity="1" data-original="#81b823" class=""></path><path fill="#78a91f" d="M196.532 141.196c-10.535-5.54-28.324-7.918-47.982-5.536-8.681 1.052-16.784 2.919-23.896 5.355a16.826 16.826 0 0 1 6.004 5.764c5.552-1.538 11.565-2.742 17.892-3.508 16.767-2.031 32.156-.591 42.862 3.311 1.975-1.267 3.758-2.585 5.294-3.946a.886.886 0 0 0-.174-1.44z" opacity="1" data-original="#78a91f" class=""></path><path fill="#97d729" d="M185.665 198.856c-5.389-10.613-18.524-22.843-35.937-32.272-5.691-3.082-11.38-5.607-16.877-7.579a16.719 16.719 0 0 1-4.059 8.021 16.733 16.733 0 0 1-12.36 5.482c6.031 5.377 13.446 10.6 21.877 15.165 17.413 9.429 34.833 13.745 46.666 12.458a.886.886 0 0 0 .69-1.275z" opacity="1" data-original="#97d729"></path><path fill="#8bc727" d="M185.665 198.856c-.875-1.723-1.974-3.49-3.242-5.279-10.846-.99-24.208-5.202-37.577-12.441-6.818-3.692-12.965-7.815-18.258-12.101a16.711 16.711 0 0 1-10.156 3.474c6.031 5.377 13.446 10.6 21.877 15.165 17.413 9.429 34.833 13.745 46.666 12.458a.887.887 0 0 0 .69-1.276z" opacity="1" data-original="#8bc727"></path><path fill="#97d729" d="M103.982 176.987a16.733 16.733 0 0 1-11.674 5.466 16.799 16.799 0 0 1-7.396-1.342c-1.925 5.811-3.5 12.173-4.583 18.919-3.139 19.552-1.45 37.419 3.679 48.16a.886.886 0 0 0 1.432.23c8.233-8.596 15.43-25.037 18.568-44.588 1.63-10.152 1.948-19.839 1.168-28.321a17.16 17.16 0 0 1-1.194 1.476z" opacity="1" data-original="#97d729"></path><path fill="#8bc727" d="M89.739 200.03c1.01-6.289 2.445-12.246 4.194-17.73a17.15 17.15 0 0 1-2.399.171c-2.352 0-4.587-.49-6.622-1.36-1.925 5.811-3.5 12.173-4.583 18.919-3.139 19.552-1.45 37.419 3.679 48.16a.886.886 0 0 0 1.432.23c1.881-1.964 3.704-4.356 5.441-7.082-3.058-10.736-3.685-25.468-1.142-41.308z" opacity="1" data-original="#8bc727"></path><path fill="#81b823" d="M74.723 166.39a17.034 17.034 0 0 1 .021-1.823c-5.977 4.057-12.071 9.12-17.9 15.06-13.87 14.133-22.828 29.684-24.858 41.413a.887.887 0 0 0 1.035 1.016c11.688-2.249 27.069-11.497 40.939-25.63 4.74-4.829 8.889-9.823 12.401-14.775a16.803 16.803 0 0 1-11.638-15.261z" opacity="1" data-original="#81b823" class=""></path><path fill="#78a91f" d="M74.723 166.39a17.034 17.034 0 0 1 .021-1.823c-5.977 4.057-12.071 9.12-17.9 15.06-13.87 14.133-22.828 29.684-24.858 41.413a.887.887 0 0 0 1.035 1.016c2.433-.468 5.032-1.256 7.737-2.312 4.013-10.012 11.668-21.457 22.112-32.098 4.767-4.857 9.711-9.133 14.623-12.746a16.802 16.802 0 0 1-2.77-8.51z" opacity="1" data-original="#78a91f" class=""></path><path fill="#97d729" d="M74.723 166.39a16.73 16.73 0 0 1 4.389-12.12 16.707 16.707 0 0 1 9.082-5.13c-10.499-2.264-24.156-2.357-38.706.259-19.488 3.506-35.791 11.01-44.231 19.403a.886.886 0 0 0 .257 1.427c10.835 4.926 28.731 6.28 48.22 2.775 7.605-1.368 14.714-3.35 21.071-5.751-.028-.287-.069-.571-.082-.863z" opacity="1" data-original="#97d729"></path><path fill="#8bc727" d="M74.723 166.39a16.726 16.726 0 0 1 2.418-9.491c-6.925 2.817-14.855 5.128-23.407 6.666-15.836 2.848-30.62 2.488-41.419-.39-2.728 1.804-5.111 3.689-7.058 5.626a.886.886 0 0 0 .257 1.427c10.835 4.926 28.731 6.28 48.22 2.775 7.605-1.368 14.714-3.35 21.071-5.751-.028-.286-.069-.57-.082-.862z" opacity="1" data-original="#8bc727"></path><path fill="#81b823" d="M90.786 148.805a16.775 16.775 0 0 1 7.691 1.479c-6.099-10.193-19.786-21.478-37.502-29.795-17.925-8.415-35.564-11.724-47.304-9.76a.886.886 0 0 0-.616 1.313c5.989 10.286 19.804 21.742 37.729 30.157 10.901 5.117 21.687 8.334 31.114 9.638a16.7 16.7 0 0 1 8.888-3.032z" opacity="1" data-original="#81b823" class=""></path><path fill="#78a91f" d="M90.786 148.805a16.795 16.795 0 0 1 7.695 1.48c-1.175-1.962-2.633-3.964-4.345-5.978-11.037-.191-25.01-3.639-39.174-10.288-14.306-6.716-25.98-15.369-33.161-23.818-2.931-.051-5.667.115-8.13.527a.886.886 0 0 0-.616 1.313c5.989 10.286 19.804 21.742 37.729 30.157 10.901 5.117 21.687 8.334 31.114 9.638a16.708 16.708 0 0 1 8.888-3.031z" opacity="1" data-original="#78a91f" class=""></path><path fill="#97d729" d="M97.778 149.977c.588.233 1.159.497 1.713.793a.884.884 0 0 0 .908-.796c1.065-11.855-3.577-29.191-13.331-46.424S64.84 73.414 54.128 68.225a.886.886 0 0 0-1.262.714c-1.065 11.855 3.577 29.191 13.331 46.424 9.345 16.512 21.184 29.029 31.581 34.614z" opacity="1" data-original="#97d729"></path><path fill="#8bc727" d="M97.778 149.977c.588.233 1.159.497 1.713.793a.884.884 0 0 0 .908-.796c.18-2.007.183-4.182.04-6.476-8.58-6.611-17.552-17.189-24.958-30.273C67.378 98.91 62.816 84.534 62.11 73.277c-2.721-2.096-5.403-3.803-7.982-5.052a.886.886 0 0 0-1.262.714c-1.065 11.855 3.577 29.191 13.331 46.424 9.345 16.512 21.184 29.029 31.581 34.614z" opacity="1" data-original="#8bc727"></path><circle cx="91.547" cy="165.629" r="17.841" fill="#a44f3e" opacity="1" data-original="#a44f3e" class=""></circle><path fill="#883f2e" d="M100.648 174.981c-9.844.445-18.184-7.173-18.63-17.017a17.748 17.748 0 0 1 1.66-8.344c-6.168 3.036-10.286 9.507-9.955 16.814.445 9.843 8.786 17.462 18.63 17.017 6.864-.311 12.636-4.465 15.356-10.286a17.724 17.724 0 0 1-7.061 1.816z" opacity="1" data-original="#883f2e" class=""></path><circle cx="116.358" cy="155.668" r="17.841" fill="#a44f3e" opacity="1" data-original="#a44f3e" class=""></circle><path fill="#883f2e" d="M125.648 164.981c-9.844.445-18.184-7.173-18.63-17.017a17.747 17.747 0 0 1 1.693-8.42c-6.293 2.988-10.511 9.534-10.177 16.93.445 9.843 8.786 17.462 18.63 17.017 6.834-.309 12.589-4.428 15.324-10.21a17.768 17.768 0 0 1-6.84 1.7z" opacity="1" data-original="#883f2e" class=""></path><path fill="#d88a55" d="M52.329 335.158h21.624V373H52.329z" opacity="1" data-original="#d88a55"></path><path fill="#c57a44" d="M52.329 335.158h8.046V373h-8.046z" opacity="1" data-original="#c57a44"></path><path fill="#d88a55" d="M128.014 335.158h21.624V373h-21.624z" opacity="1" data-original="#d88a55"></path><path fill="#c57a44" d="M128.014 335.158h8.046V373h-8.046z" opacity="1" data-original="#c57a44"></path><path fill="#d88a55" d="M203.698 335.158h21.624V373h-21.624z" opacity="1" data-original="#d88a55"></path><path fill="#c57a44" d="M203.698 335.158h8.046V373h-8.046z" opacity="1" data-original="#c57a44"></path><path fill="#d88a55" d="M279.383 335.158h21.624V373h-21.624zM355.067 335.158h21.624V373h-21.624z" opacity="1" data-original="#d88a55"></path><path fill="#c57a44" d="M279.383 335.158h8.046V373h-8.046zM355.067 335.158h8.046V373h-8.046z" opacity="1" data-original="#c57a44"></path><path fill="#60b7ff" d="M40.591 372C79.914 454.77 164.269 512 262 512s182.086-57.23 221.409-140z" opacity="1" data-original="#60b7ff"></path><circle cx="375.127" cy="52.979" r="52.979" fill="#fdb441" opacity="1" data-original="#fdb441"></circle><path fill="#fea613" d="M360.882 52.979c0-22.419 13.932-41.571 33.605-49.308A52.797 52.797 0 0 0 375.127 0c-29.26 0-52.979 23.719-52.979 52.979s23.72 52.979 52.979 52.979a52.768 52.768 0 0 0 19.359-3.672c-19.672-7.736-33.604-26.888-33.604-49.307z" opacity="1" data-original="#fea613"></path><path fill="#d88a55" d="M156.076 193.766h239.278v122.93H156.076z" opacity="1" data-original="#d88a55"></path><path fill="#c57a44" d="M156.076 193.766H176v122.93h-19.924z" opacity="1" data-original="#c57a44"></path><g fill="#ea9b58"><path d="M398.254 251.594H153.177c-2 0-3.622-1.622-3.622-3.622v-4.829c0-2 1.622-3.622 3.622-3.622h245.077c2 0 3.622 1.622 3.622 3.622v4.829c0 2-1.622 3.622-3.622 3.622zM398.254 278.154H153.177c-2 0-3.622-1.622-3.622-3.622v-4.829c0-2 1.622-3.622 3.622-3.622h245.077c2 0 3.622 1.622 3.622 3.622v4.829c0 2-1.622 3.622-3.622 3.622zM398.254 304.714H153.177c-2 0-3.622-1.622-3.622-3.622v-4.829c0-2 1.622-3.622 3.622-3.622h245.077c2 0 3.622 1.622 3.622 3.622v4.829c0 2-1.622 3.622-3.622 3.622z" fill="#ea9b58" opacity="1" data-original="#ea9b58"></path></g><path fill="#fed2a4" d="M235.83 291.434h28.975c2 0 3.622-1.622 3.622-3.622v-41.047c0-2-1.622-3.622-3.622-3.622H235.83c-2 0-3.622 1.622-3.622 3.622v41.047c0 2 1.621 3.622 3.622 3.622z" opacity="1" data-original="#fed2a4"></path><path fill="#ffbd86" d="M247.788 287.812v-41.047c0-2 1.622-3.622 3.622-3.622h-15.58c-2 0-3.622 1.622-3.622 3.622v41.047c0 2 1.622 3.622 3.622 3.622h15.58a3.622 3.622 0 0 1-3.622-3.622z" opacity="1" data-original="#ffbd86"></path><path fill="#fed2a4" d="M185.124 291.434h28.975c2 0 3.622-1.622 3.622-3.622v-41.047c0-2-1.622-3.622-3.622-3.622h-28.975c-2 0-3.622 1.622-3.622 3.622v41.047c0 2 1.622 3.622 3.622 3.622z" opacity="1" data-original="#fed2a4"></path><path fill="#ffbd86" d="M197.082 287.812v-41.047c0-2 1.622-3.622 3.622-3.622h-15.58c-2 0-3.622 1.622-3.622 3.622v41.047c0 2 1.622 3.622 3.622 3.622h15.58c-2 0-3.622-1.622-3.622-3.622z" opacity="1" data-original="#ffbd86"></path><path fill="#fed2a4" d="M351.728 243.143h-59.925c-2 0-3.622 1.622-3.622 3.622v69.932h67.169v-69.932a3.622 3.622 0 0 0-3.622-3.622z" opacity="1" data-original="#fed2a4"></path><path fill="#ffbd86" d="M310.618 243.143h-18.815c-2 0-3.622 1.622-3.622 3.622v69.932h18.815v-69.932a3.622 3.622 0 0 1 3.622-3.622z" opacity="1" data-original="#ffbd86"></path><path fill="#ea9b58" d="M273.707 99.608 140.68 188.247c-2.982 1.987-1.576 6.636 2.008 6.636h266.055c3.584 0 4.991-4.649 2.008-6.636L277.723 99.608a3.619 3.619 0 0 0-4.016 0z" opacity="1" data-original="#ea9b58"></path><path fill="#d88a55" d="m165.62 188.246 122.565-81.668-10.462-6.971a3.624 3.624 0 0 0-4.017 0l-133.027 88.639c-2.982 1.987-1.576 6.636 2.008 6.636h24.941c-3.583 0-4.99-4.648-2.008-6.636zM219.713 164.599l54.145-36.077a3.348 3.348 0 0 1 3.715 0l54.145 36.077c2.758 1.838 1.457 6.137-1.857 6.137h-108.29c-3.315.001-4.616-4.299-1.858-6.137z" opacity="1" data-original="#d88a55"></path><path fill="#c57a44" d="m245.498 164.599 43.11-28.725-11.035-7.353a3.348 3.348 0 0 0-3.715 0l-54.145 36.077c-2.758 1.838-1.457 6.137 1.857 6.137h25.784c-3.314.002-4.615-4.298-1.856-6.136z" opacity="1" data-original="#c57a44"></path><path fill="#ea9b58" d="M398.254 225.034H153.177c-2 0-3.622-1.622-3.622-3.622v-4.829c0-2 1.622-3.622 3.622-3.622h245.077c2 0 3.622 1.622 3.622 3.622v4.829c0 2-1.622 3.622-3.622 3.622z" opacity="1" data-original="#ea9b58"></path><path fill="#fdb441" d="M175 301.089h20v15.607h-20z" opacity="1" data-original="#fdb441"></path><path fill="#fea613" d="M175 301.089h8v15.607h-8z" opacity="1" data-original="#fea613"></path><path fill="#fdb441" d="M81 301.089h20v15.607H81z" opacity="1" data-original="#fdb441"></path><path fill="#fea613" d="M81 301.089h8v15.607h-8z" opacity="1" data-original="#fea613"></path><path fill="#ffffff" d="M75.865 286.97a4.623 4.623 0 0 0 3.504 1.604h118.683v-7.397a3.63 3.63 0 0 0-3.629-3.629H86.783a3.629 3.629 0 0 1-2.747-1.258l-31.165-36.103a3.629 3.629 0 0 0-5.165-.334l-6.933 6.196c-.045.04-.077.089-.12.131z" opacity="1" data-original="#ffffff"></path><path fill="#fe9901" d="M74.385 302.089h128.986A3.63 3.63 0 0 0 207 298.46v-7.257a3.63 3.63 0 0 0-3.629-3.629H79.369a3.629 3.629 0 0 1-2.747-1.258l-36.229-41.968a3.63 3.63 0 0 0-5.118-.376l-5.494 4.743a3.63 3.63 0 0 0-.376 5.118l39.485 45.74a7.26 7.26 0 0 0 5.495 2.516z" opacity="1" data-original="#fe9901"></path><path fill="#a44f3e" d="M408.587 315.696H21.847a243.417 243.417 0 0 0 5.092 20.543h381.648a5.406 5.406 0 0 0 5.406-5.406v-9.731a5.406 5.406 0 0 0-5.406-5.406z" opacity="1" data-original="#a44f3e" class=""></path><path fill="#883f2e" d="M50.895 324.313a256.957 256.957 0 0 1-2.213-8.617H21.847a243.417 243.417 0 0 0 5.092 20.543h381.648a5.406 5.406 0 0 0 5.406-5.406V328H55.724a5.014 5.014 0 0 1-4.829-3.687z" opacity="1" data-original="#883f2e" class=""></path><g fill="#26a6fe"><path d="M369.892 440.333h17.892a9.167 9.167 0 0 0 9.167-9.167 9.167 9.167 0 0 0-9.167-9.167H284.167a9.167 9.167 0 0 0-9.167 9.167 9.167 9.167 0 0 0 9.167 9.167h33.611c5.063 0 9.167 4.104 9.167 9.167s-4.104 9.167-9.167 9.167h-22c-5.063 0-9.167 4.104-9.167 9.167s4.104 9.167 9.167 9.167h92.465a245.67 245.67 0 0 0 26.358-18.333h-44.708c-5.063 0-9.167-4.104-9.167-9.167s4.103-9.168 9.166-9.168zM178.275 415.5a9.167 9.167 0 0 1 9.167-9.167h17.892a9.167 9.167 0 0 0 9.167-9.167 9.167 9.167 0 0 0-9.167-9.167H101.716a9.167 9.167 0 0 0-9.167 9.167 9.167 9.167 0 0 0 9.167 9.167h33.611a9.167 9.167 0 0 1 9.167 9.167 9.167 9.167 0 0 1-9.167 9.167h-22a9.167 9.167 0 0 0-9.167 9.167 9.167 9.167 0 0 0 9.167 9.167h119.506a9.167 9.167 0 0 0 9.167-9.167 9.167 9.167 0 0 0-9.167-9.167h-45.392a9.167 9.167 0 0 1-9.166-9.167zM312.481 382.667h-35.877c-5.063 0-9.163 4.104-9.163 9.167a9.167 9.167 0 0 0 9.167 9.167h36.225a9.168 9.168 0 0 0 9.15-9.733c-.295-4.9-4.594-8.601-9.502-8.601zM251.04 470h-35.877c-5.063 0-9.163 4.104-9.163 9.167a9.167 9.167 0 0 0 9.167 9.167h36.225a9.168 9.168 0 0 0 9.15-9.733c-.295-4.899-4.595-8.601-9.502-8.601zM424.542 399.6c-.295-4.899-4.594-8.6-9.502-8.6h-17.877c-5.063 0-9.163 4.104-9.163 9.167s4.104 9.167 9.167 9.167h18.225a9.17 9.17 0 0 0 9.15-9.734z" fill="#26a6fe" opacity="1" data-original="#26a6fe"></path></g></g></svg>